<?xml version="1.0" encoding="UTF-8"?>
<!DOCTYPE svg PUBLIC "-//W3C//DTD SVG 1.1//EN" "http://www.w3.org/Graphics/SVG/1.1/DTD/svg11.dtd">
<!-- Creator: CorelDRAW -->
<svg xmlns="http://www.w3.org/2000/svg" xml:space="preserve" width="148.167mm" height="117.475mm" version="1.1" style="shape-rendering:geometricPrecision; text-rendering:geometricPrecision; image-rendering:optimizeQuality; fill-rule:evenodd; clip-rule:evenodd"
viewBox="0 0 2049.17 1624.7"
 xmlns:xlink="http://www.w3.org/1999/xlink"
 xmlns:xodm="http://www.corel.com/coreldraw/odm/2003">
 <defs>
  <style type="text/css">
   <![CDATA[
    .fil0 {fill:#78B833}
   ]]>
  </style>
 </defs>
 <g id="Layer_x0020_1">
  <metadata id="CorelCorpID_0Corel-Layer"/>
  <g id="_3081527865264">
   <path class="fil0" d="M1029.46 951.4c-78.87,0 -136.61,-59.42 -136.61,-136.61 0,-69.94 62.5,-131.73 131.73,-131.73 182.62,0 177.46,268.34 4.88,268.34zm1019.71 -623.61l0 38.29c-2.17,46.29 -12.28,90.96 -30.81,125.16 -8.81,16.26 -19.03,33.5 -29.75,48.31 -10.86,14.99 -23.4,28 -32.14,41.05 7.09,10.59 9.73,11.1 18.08,20.95 42.63,50.31 74.62,125.98 74.62,198.6 0,125.48 -25.18,183.27 -106.11,264.69 -132.34,133.12 -348.62,121.36 -463.6,7.41 -51.79,-51.32 -108.46,-127.48 -108.46,-208.67l-9.76 0c0,90.73 -52.13,151.5 -108.51,208.62 -198.34,200.94 -564.78,34.72 -564.78,-218.38l-9.76 34.15c-22.66,139.41 -168.72,273.22 -336.65,273.22 -199.77,0 -329.12,-161.88 -341.53,-324.44l0 -50.88c2.93,-37.48 12.45,-74.09 29.18,-107.78 29.38,-59.15 34.54,-54.22 63.52,-97.49 -29.24,-43.67 -34.57,-39.22 -63.52,-97.49 -20.04,-40.35 -29.18,-91.8 -29.18,-146.46 0,-45.61 14.8,-105.75 29.21,-136.68 57.28,-122.9 179.11,-199.97 322.08,-199.97 156.77,0 302.31,129.3 326.79,273.33l9.86 29.17c0,-145.53 157.6,-302.5 331.77,-302.5 158.48,0 290.56,102.72 332.46,238.38 2.81,9.1 5.92,22.53 7.49,31.54 4.42,25.43 -4.81,15.86 11.34,27.7 0,-29.69 4.42,-46.83 13.24,-69.71 110.99,-288.16 496.12,-307.69 634.11,-31.2 18.18,36.42 28.62,83.31 30.83,131.07zm-336.65 623.61c-41.84,0 -69.75,-13.51 -91.61,-35.24 -96.76,-96.18 -27.43,-228.5 87.32,-231.16 180.06,-4.16 176.45,266.4 4.29,266.4zm-1502.72 -131.73c0,-181.49 268.34,-178.69 268.34,0 0,172.87 -268.34,173 -268.34,0zm1063.62 -239.07c37.8,-56.45 53.34,-51.22 79.88,-139.67 15.36,-51.19 -2.02,-41.04 17.7,-55.49 0,65.99 32.62,126.19 71.75,172.2 6.54,7.7 10.97,15.33 16.08,22.96 -33.42,49.91 -87.82,102.13 -87.82,195.16 -22.47,-16.46 1.82,1.61 -17.56,-55.62 -15.79,-46.61 -18.65,-59.65 -47.94,-98.43 -10.82,-14.33 -23.68,-28.56 -32.08,-41.11zm-683.06 0c37.86,-56.54 67.43,-67.16 88.11,-170.47l9.47 -29.57c0,53.44 27.34,120.42 56.36,158.31 12.76,16.66 20.24,24.97 31.46,41.73 -37.09,55.38 -87.82,103.95 -87.82,200.04l-8.7 -25.45c-9.55,-44.71 -24.52,-94.29 -53.97,-131.43 -10.89,-13.73 -25.87,-29.68 -34.9,-43.16zm302.5 -234.19c0,-40.27 15.98,-79.05 40.36,-101.13 9.32,-8.44 27.32,-21.14 38.14,-25.29 89.86,-34.42 189.84,16.81 189.84,131.29 0,58.84 -59.24,121.98 -117.09,121.98 -48.72,0 -76.85,1.33 -116.06,-40.07 -19.36,-20.45 -35.19,-48.33 -35.19,-86.78zm834.31 126.85l-39.03 0c-86.54,0 -161.81,-137.1 -71.57,-227.7 72.45,-72.74 227.7,-32.64 227.7,100.85 0,66.55 -60.17,126.85 -117.09,126.85zm-1517.36 -131.73c0,-128.39 154.69,-169.33 227.76,-96.03 5.81,5.83 22.95,29.33 26.89,36.54 44.94,82.33 -21.23,191.22 -103.4,191.22 -54.72,0 -74.19,3.12 -118.48,-42.52 -19.65,-20.24 -32.77,-51.54 -32.77,-89.21z"/>
   <path class="fil0" d="M648.9 1473.45c0,-159.1 185.4,-117.05 185.4,-29.27 0,38.76 2.59,63.52 -27.95,94.03 -47.13,47.07 -157.45,18.57 -157.45,-64.75zm-63.43 -29.27c0,51.36 -0.08,88.92 42.51,133.13 36.73,38.13 71.07,42.51 123.38,42.51 40.22,0 68.98,-27.11 87.82,-48.79 0,49.82 -11.02,43.91 63.43,43.91l0 -302.5c-74.45,0 -63.43,-5.9 -63.43,43.91 -59.84,-68.85 -157.64,-59.94 -208.74,-8.71 -17.38,17.42 -44.96,63.77 -44.96,96.53z"/>
   <path class="fil0" d="M1854.01 1561.27c-134.75,0 -119.51,-195.16 -9.76,-195.16 96.32,0 129.69,102.83 76.87,164.69 -14,16.39 -38.45,30.47 -67.11,30.47zm-161.01 -102.46c0,153.49 166.51,206.34 267.03,120.66 74.96,-63.89 72.49,-271.91 -115.78,-271.91 -88.9,0 -151.25,80.1 -151.25,151.25z"/>
   <path class="fil0" d="M1444.18 1351.48l0 -39.03c-44.7,0 -63.43,-6.18 -63.43,14.64l0 273.22c0,20.82 18.73,14.64 63.43,14.64l0 -170.76c0,-85.75 146.37,-129.61 146.37,14.64l0 156.13 58.55 0 0 -200.04c0,-66.18 -47.9,-107.34 -121.97,-107.34 -46.88,0 -57.42,26.82 -82.94,43.91z"/>
   <path class="fil0" d="M263.46 1444.18c0,49.67 0.37,91.07 42.47,133.17 77.93,77.93 227.1,44.31 250.27,-55.11 -15.6,-8.26 -34.32,-15.01 -53.67,-19.52 -12.29,18.35 -28.67,58.55 -78.06,58.55 -59.5,0 -97.58,-41.18 -97.58,-78.06l0 -34.15c0,-71.73 92.48,-105.93 140.34,-67.16 14.35,11.63 23.68,29.38 35.3,37.88 20.9,-4.87 32.13,-10.7 48.79,-19.52 -5.68,-68.28 -145.09,-140.77 -242.62,-52.34 -18.15,16.46 -45.24,63.03 -45.24,96.25z"/>
   <path class="fil0" d="M970.92 1390.51c0,97.56 161.01,93.11 161.01,141.49 0,50.92 -75.91,43.74 -117.17,24.47 -17.53,-8.18 -27.07,-22.67 -48.72,-24.47 -3.9,16.75 -12.19,30.06 -19.52,43.91 42.69,28.59 67.61,48.79 131.73,48.79 68.71,0 112.22,-34.21 112.22,-102.46 0,-78.04 -156.13,-83.58 -156.13,-131.73 0,-18.86 20.02,-29.27 39.03,-29.27 39.69,0 62.1,15.67 87.82,29.27 4.57,-9.52 14.33,-39.79 14.64,-53.67 -15.1,-4.03 -24.72,-13.49 -38.97,-19.58 -69.66,-29.77 -165.95,6.05 -165.95,73.25z"/>
   <path class="fil0" d="M1239.26 1327.08l0 273.22c0,20.82 18.72,14.64 63.43,14.64l0 -302.5c-44.7,0 -63.43,-6.18 -63.43,14.64z"/>
   <path class="fil0" d="M1239.26 1229.5c0,66.28 68.31,52.2 68.31,9.76 0,-54.02 -68.31,-40.8 -68.31,-9.76z"/>
  </g>
 </g>
</svg>
