<?xml version="1.0" encoding="UTF-8"?>
<!DOCTYPE svg PUBLIC "-//W3C//DTD SVG 1.1//EN" "http://www.w3.org/Graphics/SVG/1.1/DTD/svg11.dtd">
<!-- Creator: CorelDRAW -->
<svg xmlns="http://www.w3.org/2000/svg" xml:space="preserve" width="224.307mm" height="71.8904mm" version="1.1" style="shape-rendering:geometricPrecision; text-rendering:geometricPrecision; image-rendering:optimizeQuality; fill-rule:evenodd; clip-rule:evenodd"
viewBox="0 0 3453.3 1106.78"
 xmlns:xlink="http://www.w3.org/1999/xlink"
 xmlns:xodm="http://www.corel.com/coreldraw/odm/2003">
 <defs>
  <style type="text/css">
   <![CDATA[
    .fil2 {fill:#0EA457}
    .fil0 {fill:#7C47E1}
    .fil1 {fill:white}
   ]]>
  </style>
 </defs>
 <g id="Layer_x0020_1">
  <metadata id="CorelCorpID_0Corel-Layer"/>
  <g id="_3081517534336">
   <path class="fil0" d="M853.67 862.25c-7.91,4.33 -9.77,7.71 -16.31,13.08 -184.88,151.58 -449.56,118.45 -591.81,-67.61 -64.71,-84.64 -104.98,-210.41 -73.06,-345.38 57.08,-241.35 307.41,-374 536.17,-295.52 163.22,55.99 273.35,211.43 276.83,380.54 2.21,107.09 0.77,221.47 0.77,329.79 0,40.78 -3.02,61.32 -29.8,79.35 -26.51,17.83 -61.19,12.51 -81.07,-6.8 -25.99,-25.23 -21.37,-44.46 -21.72,-87.44zm-261.43 244.53l-49.01 0c-30.02,-0.24 -58.07,-1.41 -86.41,-6.17 -59.38,-9.97 -109.66,-26.15 -160.44,-51.94l-23.5 -12.76c-20.38,-11.74 -44.76,-27.85 -62.77,-42.56 -3.49,-2.85 -6.63,-4.97 -9.86,-7.41 -4.03,-3.05 -5.22,-4.85 -9.12,-8.15l-18.22 -16.31c-18.46,-14.73 -30.14,-31.18 -43.86,-45.93 -3.76,-4.04 -4.65,-4.82 -7.96,-9.3 -30.14,-40.8 -43.45,-56.44 -68.17,-107.95 -36.91,-76.89 -52.93,-155.89 -52.93,-244.05 0,-51.48 6.29,-80.97 15.96,-127.35l36.96 -104.62c33.14,-69.03 74.37,-125.3 128.79,-173.38 53.51,-47.28 91.61,-73.46 162.62,-103.29 83.04,-34.88 149.95,-40.44 242.73,-40.44 95.49,0 186.79,-1.73 283.17,-1.73l566.34 0c95.81,0 186.11,-1.73 281.44,-1.73 379.2,0 754.96,-1.73 1132.68,-1.73 73.73,0 128.34,0.6 194.74,19.37 53.76,15.2 123.42,44.33 169.85,78.79l39.99 30.81c33.37,28.06 34.33,30.82 62.93,61.38 37.32,39.88 65.55,91.48 89.06,140.59 24.54,51.27 46.04,142.41 46.04,200.87 0,65.23 -0.15,104.35 -18.78,167.69 -5.53,18.79 -11.05,35.5 -17.72,53.08 -18.48,48.73 -46.11,93.89 -77.48,134.9l-59.1 65.22c-40.2,37.18 -87.08,68.29 -136.57,93.07 -50.69,25.39 -103.05,40.68 -161.72,50.66 -40.2,6.84 -85.6,6.9 -132.96,6.9 -753.16,0 -1503.09,3.45 -2256.73,3.45zm2257.63 -965.24c88.29,-8.62 174.44,17.85 246.09,60.4 57.6,34.2 116.79,96.64 148.68,160.41 136.05,272.08 -43.64,581.82 -335.23,603.2 -236.82,17.36 -425.15,-164.28 -440.76,-381.85 -9.24,-128.89 41.83,-237.53 104.1,-305.65 62,-67.82 143.23,-123.45 277.11,-136.51zm-1396.91 -2.01c87.43,-7.49 169.84,15.23 233.69,50.66 29.28,16.25 64.73,41.58 83.39,61.7 43.93,47.38 -3.71,127.35 -68.71,108.32 -20.35,-5.96 -29.2,-18.61 -43.14,-29.31 -97.47,-74.77 -227.78,-78.46 -324.78,-14.5 -212.41,140.05 -148.1,460.73 94.08,512.82 87.66,18.85 168.79,-7.76 224.82,-48.88 14.62,-10.72 23.81,-23.12 43,-29.47 64.84,-21.47 115.56,59.06 71.17,107.37 -41.31,44.96 -123.06,85.78 -187.92,100.52 -236.84,53.82 -466.12,-105.13 -502.46,-341.18 -36.8,-239.12 134.33,-457.29 376.85,-478.06zm551.71 490.29c-0.53,73.73 -0.04,147.66 -0.04,221.42 0,39.57 4.4,67.23 -19.34,91.15 -19.18,19.33 -51.2,26.75 -80.36,10.28 -26.54,-14.99 -32.91,-38.54 -32.9,-77.26l-0.66 -328.06c-1.39,-108.74 -0.28,-220.52 -0.37,-329.79 -0.02,-20.68 -0.77,-30.81 8.43,-47.51 5.77,-10.47 15.55,-20.32 27.1,-26.43 30.06,-15.9 65.91,-2.94 80.63,15.43 21.17,26.43 16.06,54.12 16.06,93.04 0,72.01 -2.19,147.48 0.15,219.06 9.4,-5.17 19.48,-15.41 28.49,-22.61l248.31 -207.52c30.44,-25.29 81.57,-69.76 110.26,-91.76 21.94,-16.83 53.49,-18.75 77.17,-2.71 31.33,21.22 42.91,68.08 9.19,102.88l-110.26 91.78c-17.76,14.49 -242.06,199.08 -247.76,206.15 7.83,8.45 17.92,15.74 27.55,24.07 9.37,8.11 18.98,15.66 28.37,23.44 18.95,15.73 36.74,30.51 55.22,46.65 8.67,7.57 18.86,15.68 28.34,23.46 10.13,8.32 17.78,15.6 27.98,23.79l111.93 93.57c18.9,16.31 37.23,30.49 55.36,46.5 21.03,18.56 39.89,25.46 48.15,55.4 9.09,32.95 -8.12,59.02 -26.01,71.99 -23.06,16.72 -56.11,15.07 -77.44,-1.29 -9.24,-7.09 -18.93,-15.91 -28.24,-23.59l-139.72 -115.82c-19.52,-15.52 -37.13,-30.67 -56.57,-47.02 -45.32,-38.11 -96.68,-78.57 -140.75,-116.5 -6.21,-5.35 -21.09,-18.93 -28.29,-22.18z"/>
   <path class="fil1" d="M554.36 278.95c159.55,-11.81 287.66,112.03 298.04,258.27 11.38,160.42 -110.44,288.56 -256.63,299.86 -161.88,12.51 -289.09,-111.58 -299.9,-259.67 -11.73,-160.71 111.93,-287.6 258.5,-298.45zm299.31 583.3c0.35,42.98 -4.27,62.2 21.72,87.44 19.88,19.31 54.56,24.63 81.07,6.8 26.78,-18.02 29.8,-38.57 29.8,-79.35 -0,-108.32 1.44,-222.7 -0.77,-329.79 -3.48,-169.11 -113.61,-324.55 -276.83,-380.54 -228.76,-78.47 -479.09,54.17 -536.17,295.52 -31.92,134.98 8.35,260.74 73.06,345.38 142.24,186.07 406.93,219.2 591.81,67.61 6.54,-5.36 8.4,-8.74 16.31,-13.08z"/>
   <path class="fil1" d="M2598.24 549.08c0,-151.35 128.1,-277.55 280.09,-277.55 154.23,0 281.79,125.59 281.79,277.55l0 8.63c0,148.29 -126.25,277.55 -274.88,277.55l-10.36 0c-149.78,0 -276.64,-127.9 -276.64,-277.55l0 -8.63zm251.64 -407.53c-133.88,13.06 -215.11,68.69 -277.11,136.51 -62.27,68.12 -113.34,176.76 -104.1,305.65 15.61,217.56 203.94,399.21 440.76,381.85 291.59,-21.37 471.28,-331.12 335.23,-603.2 -31.89,-63.78 -91.08,-126.21 -148.68,-160.41 -71.66,-42.55 -157.8,-69.01 -246.09,-60.4z"/>
   <path class="fil1" d="M2004.67 629.82c7.2,3.24 22.08,16.83 28.29,22.18 44.07,37.94 95.44,78.39 140.75,116.5 19.44,16.35 37.04,31.5 56.57,47.02l139.72 115.82c9.31,7.68 18.99,16.5 28.24,23.59 21.32,16.36 54.38,18.01 77.44,1.29 17.88,-12.97 35.1,-39.04 26.01,-71.99 -8.26,-29.94 -27.13,-36.85 -48.15,-55.4 -18.13,-16.01 -36.46,-30.19 -55.36,-46.5l-111.93 -93.57c-10.2,-8.19 -17.85,-15.48 -27.98,-23.79 -9.49,-7.79 -19.67,-15.89 -28.34,-23.46 -18.48,-16.14 -36.28,-30.92 -55.22,-46.65 -9.39,-7.79 -19,-15.34 -28.37,-23.44 -9.63,-8.33 -19.72,-15.62 -27.55,-24.07 5.7,-7.07 230,-191.66 247.76,-206.15l110.26 -91.78c33.73,-34.8 22.14,-81.66 -9.19,-102.88 -23.68,-16.04 -55.23,-14.11 -77.17,2.71 -28.69,22 -79.83,66.47 -110.26,91.76l-248.31 207.52c-9.02,7.21 -19.09,17.45 -28.49,22.61 -2.34,-71.58 -0.15,-147.04 -0.15,-219.06 0,-38.92 5.1,-66.61 -16.06,-93.04 -14.71,-18.37 -50.56,-31.33 -80.63,-15.43 -11.55,6.11 -21.33,15.96 -27.1,26.43 -9.2,16.7 -8.45,26.83 -8.43,47.51 0.09,109.27 -1.02,221.05 0.37,329.79l0.66 328.06c-0.01,38.72 6.36,62.27 32.9,77.26 29.15,16.47 61.18,9.05 80.36,-10.28 23.74,-23.92 19.34,-51.58 19.34,-91.15 0,-73.76 -0.5,-147.68 0.04,-221.42z"/>
   <path class="fil2" d="M2598.24 549.08l0 8.63c0,149.65 126.86,277.55 276.64,277.55l10.36 0c148.63,0 274.88,-129.26 274.88,-277.55l0 -8.63c0,-151.96 -127.56,-277.55 -281.79,-277.55 -151.99,0 -280.09,126.2 -280.09,277.55z"/>
   <path class="fil0" d="M554.36 278.95c-146.56,10.85 -270.23,137.75 -258.5,298.45 10.81,148.09 138.02,272.18 299.9,259.67 146.19,-11.3 268.02,-139.44 256.63,-299.86 -10.38,-146.24 -138.49,-270.08 -298.04,-258.27z"/>
   <path class="fil1" d="M1452.96 139.53c-242.53,20.77 -413.66,238.95 -376.85,478.06 36.33,236.05 265.62,395 502.46,341.18 64.87,-14.74 146.61,-55.56 187.92,-100.52 44.39,-48.31 -6.33,-128.83 -71.17,-107.37 -19.19,6.35 -28.38,18.74 -43,29.47 -56.04,41.12 -137.16,67.73 -224.82,48.88 -242.19,-52.09 -306.5,-372.78 -94.08,-512.82 97.01,-63.96 227.31,-60.27 324.78,14.5 13.94,10.69 22.78,23.35 43.14,29.31 65,19.02 112.65,-60.94 68.71,-108.32 -18.66,-20.13 -54.11,-45.46 -83.39,-61.7 -63.85,-35.43 -146.26,-58.15 -233.69,-50.66z"/>
  </g>
 </g>
</svg>
