<?xml version="1.0" encoding="UTF-8"?>
<!DOCTYPE svg PUBLIC "-//W3C//DTD SVG 1.1//EN" "http://www.w3.org/Graphics/SVG/1.1/DTD/svg11.dtd">
<!-- Creator: CorelDRAW -->
<svg xmlns="http://www.w3.org/2000/svg" xml:space="preserve" width="230.717mm" height="55.3862mm" version="1.1" style="shape-rendering:geometricPrecision; text-rendering:geometricPrecision; image-rendering:optimizeQuality; fill-rule:evenodd; clip-rule:evenodd"
viewBox="0 0 22100.86 5305.57"
 xmlns:xlink="http://www.w3.org/1999/xlink"
 xmlns:xodm="http://www.corel.com/coreldraw/odm/2003">
 <defs>
  <style type="text/css">
   <![CDATA[
    .fil0 {fill:#F49818}
    .fil1 {fill:#E02E28}
   ]]>
  </style>
 </defs>
 <g id="Layer_x0020_1">
  <metadata id="CorelCorpID_0Corel-Layer"/>
  <g id="_3081261193040">
   <path class="fil0" d="M1554.5 1013.81c127.04,93.07 425.54,1015.15 529.51,1227.74 76.41,156.23 102.7,281.76 180.15,428.13l-1284.14 0c67.95,-291.66 558.86,-1468.09 574.49,-1655.87zm-1554.5 2973.81c435.88,0 442.04,87.97 553.53,-257.51 40.11,-124.31 68.34,-171.97 109.88,-295.64 43.43,-129.28 59.08,-188.19 113.84,-291.68l1689.67 0 304.14 844.83 439.31 0c-12.91,-155.21 -255.93,-682.28 -325.62,-890.94l-1026.12 -2657.36 -506.9 0 -1351.73 3548.31z"/>
   <path class="fil0" d="M3446.92 540.7l0 3345.54c0,137.97 105.95,101.38 371.73,101.38 77.87,0 101.38,-23.51 101.38,-101.38l0 -3446.93c-329.91,0 -473.11,-45.82 -473.11,101.39z"/>
   <g>
    <path class="fil1" d="M12131.82 3615.9c-1169.49,0 -1156.27,-1791.06 -67.58,-1791.06 564.85,0 918.25,280.78 923.31,849.49 2.34,262.39 -47.62,509.32 -203.87,681 -132.65,145.77 -384.04,260.57 -651.86,260.57zm-1351.73 -980.01l0 2669.68 439.31 0 0 -1655.87c264.56,177.15 271.02,405.52 1013.81,405.52 1301.7,0 1769.9,-2060.24 459.93,-2588.91 -437.72,-176.66 -971.72,-174.26 -1363.9,130.44 -292.17,227.01 -549.15,639.82 -549.15,1039.14z"/>
    <path class="fil1" d="M5643.49 3886.24c0,77.87 23.52,101.38 101.38,101.38l2027.61 0c147.19,0 101.38,-143.19 101.38,-473.11l-1791.05 0 0 -1081.39 1486.91 0 0 -473.11 -1486.91 0 0 -1047.59 1655.87 0 0 -473.11 -2095.19 0 0 3446.93z"/>
    <path class="fil1" d="M16457.37 1791.06c753.27,0 794.7,675.6 811.04,709.66l-1554.5 0c34.54,-72 141.64,-709.66 743.45,-709.66zm-1216.56 844.83c0,809.37 510.06,1419.32 1182.77,1419.32 290.32,0 473.31,4.83 744.91,-133.73 256.31,-130.76 221.12,-198.17 370.28,-238.01 -13.55,-162.81 -163.7,-266.51 -270.34,-337.93 -128.48,86.02 -211.51,176.46 -374.43,233.85 -177.65,62.58 -353.69,67.69 -534,34.08 -307.08,-57.23 -612.27,-304.27 -612.27,-673.46l1993.81 0c0,-607.95 -50.64,-1193.5 -652.19,-1476.8 -813.52,-383.11 -1848.52,181.17 -1848.52,1172.66z"/>
    <path class="fil1" d="M9056.63 2703.48c-181.76,271.41 -899.38,1083.12 -946.22,1284.14 482.72,0 429.86,82.75 729.38,-318.21l453.38 -627.99c115.56,84.67 622.27,841.16 716.39,905.69 104.21,71.43 340.14,40.52 500.17,40.52 -15.82,-190.06 -306.78,-464.49 -419.04,-628.55 -150.23,-219.57 -318.85,-411.64 -459.58,-621.81 34.75,-130.17 358.02,-522.29 458.64,-656.53 171.3,-228.52 334.53,-432.87 487.57,-661.41 -666.6,0 -501.95,-87.03 -801.53,313.65 -105.22,140.72 -377.15,555.29 -482.62,632.56 -112.21,-167.58 -225.34,-313.3 -337.72,-473.33 -113.35,-161.41 -228.97,-309.84 -338.16,-472.89l-574.49 0 1013.81 1284.15z"/>
    <path class="fil1" d="M20208.43 2095.2c0,930.57 1453.12,576.04 1453.12,1182.77 0,436.67 -835,553.13 -1182.77,33.8 -121.23,81.17 -257.15,183.5 -337.94,304.14 316.12,431.47 1209.35,596.7 1662.41,276.88 172.22,-121.57 265.31,-292.19 297.61,-469.99l0 -299.53c-29,-164.72 -104.06,-314.56 -209.39,-413.14 -344.36,-322.29 -1243.72,-260.32 -1243.72,-614.91 0,-420.18 834.57,-402.38 1081.38,-33.8 165.21,-110.63 215.65,-203.9 337.94,-236.56 -509.14,-760.32 -1858.64,-567.07 -1858.64,270.35z"/>
    <path class="fil1" d="M18011.87 2061.4c0,703.69 645.07,686.16 1129.22,864.59 467.91,172.45 326.34,527.58 189.83,623.43 -285.05,200.18 -958.61,99.73 -1048.7,-237.66 -100.35,53.1 -75.26,27.48 -160.57,109.78 -85.41,82.41 -58.07,94.92 -177.37,126.77 24.31,292.15 630.49,506.9 878.63,506.9l236.55 0c608.63,0 1076.13,-576.22 776.74,-1148.47 -126.94,-242.65 -364.6,-357.59 -647.88,-433.51 -360.32,-96.55 -737.14,-84.21 -737.14,-445.63 0,-247.87 416.03,-236.55 574.49,-236.55 304.38,0 334.19,154.69 506.9,270.34 82.65,-55.35 250.35,-190.03 304.14,-270.34 -466.76,-697.04 -1824.84,-532.78 -1824.84,270.34z"/>
    <path class="fil1" d="M14260.8 1655.87l0 -236.55 -439.31 0 0 2568.29c489.23,0 446.23,42.34 441.3,-268.36l-4.14 -1186.91c7.17,-410.48 487.08,-707.5 880.79,-707.5l0 -473.11c-266.15,0 -499.49,36.43 -709,169.64 -77.43,49.23 -92.75,83.01 -169.64,134.5z"/>
   </g>
   <polygon class="fil0" points="4562.1,3987.62 5001.42,3987.62 5001.42,1453.12 4562.1,1453.12 "/>
   <path class="fil0" d="M4122.79 608.28l0 67.59c659.88,54.91 507.34,518.6 675.87,642.08 49.05,-102.24 35.61,-275.01 192.71,-449.36 101.83,-113.01 263.44,-177.24 449.35,-192.71l0 -67.59c-346.48,-7.72 -608.28,-247.18 -608.28,-608.28l-101.38 0c0,361.1 -261.8,600.56 -608.28,608.28z"/>
  </g>
 </g>
</svg>
