<?xml version="1.0" encoding="UTF-8"?>
<!DOCTYPE svg PUBLIC "-//W3C//DTD SVG 1.1//EN" "http://www.w3.org/Graphics/SVG/1.1/DTD/svg11.dtd">
<!-- Creator: CorelDRAW -->
<svg xmlns="http://www.w3.org/2000/svg" xml:space="preserve" width="237.376mm" height="111.433mm" version="1.1" style="shape-rendering:geometricPrecision; text-rendering:geometricPrecision; image-rendering:optimizeQuality; fill-rule:evenodd; clip-rule:evenodd"
viewBox="0 0 14870.82 6980.88"
 xmlns:xlink="http://www.w3.org/1999/xlink"
 xmlns:xodm="http://www.corel.com/coreldraw/odm/2003">
 <defs>
  <style type="text/css">
   <![CDATA[
    .fil2 {fill:#00613F}
    .fil0 {fill:#006341}
    .fil17 {fill:#006341}
    .fil8 {fill:#006A33}
    .fil1 {fill:#016342}
    .fil15 {fill:#031C13}
    .fil12 {fill:#04130B}
    .fil13 {fill:#06180B}
    .fil16 {fill:#17130D}
    .fil18 {fill:#281909}
    .fil19 {fill:#37280A}
    .fil9 {fill:#F5B423}
    .fil6 {fill:#FABA23}
    .fil7 {fill:#FBB51C}
    .fil5 {fill:#FCBB1B}
    .fil11 {fill:#FEB90B}
    .fil3 {fill:#FEBA21}
    .fil4 {fill:#FEBA25}
    .fil10 {fill:#FEBB14}
    .fil14 {fill:#FFC409}
   ]]>
  </style>
 </defs>
 <g id="Layer_x0020_1">
  <metadata id="CorelCorpID_0Corel-Layer"/>
  <g id="_3081257253904">
   <path class="fil0" d="M6608.56 5235.66c-79.43,0 -200.99,16.62 -244.85,-65.42 -41.28,-77.21 -33.55,-91.31 -2.42,-189.61l38.85 -100.77c27.83,-64.7 94.9,-122.66 150.56,-159.7l333.99 -123.65c89.13,-15.42 134.16,-67.21 107.28,29.17 -9.58,34.34 -17.71,83.12 -18.84,121.32 -1.55,52.61 -6.06,77.4 -18.13,121.49 -31.82,116.22 22.48,277.19 -223.92,342.3 -46.02,12.16 -62.96,24.86 -122.51,24.86zm806.68 -2288.18c0,-40.17 2.17,-100.27 12.39,-134.98l50.15 -104.98c0.9,-1.42 2.05,-3.38 2.93,-4.82 23.64,-38.83 51.4,-66.15 88.78,-97.38l125.49 -76.18 213.06 -66.17c21.76,-3.76 41.27,-3.06 62.25,-7.56 44.42,-9.53 11.86,-12.1 80.98,-12.1 0,81.62 -19.26,35.9 -23.27,170.64 -1.74,58.14 -15.83,95.2 -24.61,146.03 -11.23,64.98 0.47,83.1 -26.96,143.69 -31.28,69.11 -57.04,106.37 -132.68,131.04 -21.08,6.88 -39.31,20.28 -59.65,25.67 -15.88,4.22 -139.01,18.54 -150.51,17.89 -92.23,-5.27 -218.35,-13.52 -218.35,-130.78zm-224.94 -1062.64c0,45.94 29.28,98.56 50.65,127.74 55.74,76.09 156.86,84.23 233.29,32.09 15.18,-10.36 50.37,-46.54 62.82,-61.28 43.22,-51.15 58.93,-103.8 86.36,-161.85l48.12 -200.09c13,-127.15 133.68,-116.68 232.36,-116.68 43.93,0 187.01,12.03 229.36,26.6 15.82,5.44 18.49,10.38 26.19,20.35 44.18,57.22 -2.24,153.83 -6.93,217.18l-62.46 519.28c-31.82,21.31 -24.71,19.41 -73.85,26.98 -97.45,15.01 -214.64,-0.96 -304.76,21.01 -73.2,17.85 -88.88,10.25 -178.75,38.43 -32.99,10.34 -51.81,6.65 -86.25,22.35l-81.69 26.89c-108.8,51.93 -198.61,81.55 -279.65,177.99 -10.27,12.22 -2.62,2.27 -13.93,17.09l-43.19 65.4c-11.15,17.56 -9.72,9.55 -20.66,33.63 -44.91,98.92 -93.62,238.87 -74.27,346.98 9.94,55.54 15.58,77.26 38.99,124.1 18.2,36.44 44.29,61.57 76.01,86.88l149.71 67.47c24.8,6.55 71.3,9.97 95.67,13.29 42.54,5.79 237.51,-22.24 279.82,-41.77l80.98 -27.61c13.29,-6.58 18.36,-11.32 35.73,-18.56 62.05,-25.88 118.58,-60.32 174.73,-96.76 23.11,-15 36.47,-35.51 70.26,-38.33 0,110.09 -1.04,201.67 131.86,201.67 156.67,0 154.22,-22.87 250.24,-36.75 26.9,-3.89 42.19,-3.2 61.95,-7.86 56.81,-13.38 119.51,-35.98 176.47,-40.71 6.02,16.63 8.78,31.02 69.81,31.02l798.92 0c81.42,0 77.57,-55.2 77.57,-116.35 0,-39.03 -45.74,-24.42 -77.02,-23.3 -47.86,1.7 -79.54,0.98 -116.89,-7.72 0,-62.41 13.86,-129.09 27.59,-181.83 9.5,-36.5 8.56,-48.46 11.68,-89.15 2.28,-29.71 11.92,-58.62 19.77,-88.82l43.8 -266.46c3.74,-29.2 14.36,-59.49 20.85,-87.74 8.85,-38.52 9.25,-83.53 31.03,-178.4 8.85,-38.52 9.25,-83.53 31.02,-178.4 8.85,-38.53 9.25,-83.53 31.03,-178.4 21.21,-92.35 7.14,-211.04 96.75,-267.8l75.13 -33.47c19.02,-6.28 23.79,-9.93 39.89,-14.4 57.74,-16.05 226.43,-26.48 284.21,-16.61 46.54,7.95 44.52,7.61 77.66,30.93 69.93,49.2 95.94,134.27 81.95,227.46 -9.79,65.23 -5.87,129.97 -15.61,194.18 -9.49,62.62 -26.1,121.02 -26.86,182.57 -0.94,76.56 -17.88,120.61 -27.97,189.21 -4.8,32.64 -1.92,61.16 -7.16,93.67 -6.05,37.54 -12.66,59.61 -18.21,90.38 -22.72,125.83 -25.63,244.69 -48.35,370.51 -5.56,30.8 -12.2,52.8 -18.21,90.39l-26.52 182.9c-7.24,40.06 -5.98,54.58 -9.06,99.53 -4.12,59.99 -27.8,109.14 -30.58,178.86 -1.35,33.82 -3.77,58.16 -9.97,90.86 -4.37,23.03 -15.64,61 -19.13,89.47l-27.72 189.46c-4.53,27.1 -2.69,59.72 -7.15,93.68 -3.28,25 -14.85,65.54 -19.35,89.25 -10.74,56.63 -12.17,128.36 -25.4,184.02 -14.2,59.76 -12.75,122.2 -24.09,185.33 -5.29,29.4 -14.06,55.61 -19.42,89.17 -11.88,74.41 -7.94,101.44 -25.76,183.67 -8.45,39 -5.01,55.6 -9.3,99.29 -6.1,62.16 -28.48,110.26 -29.95,179.48 -1.56,73.36 -24.05,119.45 -29.97,179.46 -19.08,193.35 -0.82,154.08 -264.77,154.08 -61.19,0 -41.32,-38.07 -29.04,-137.63 7.23,-58.61 27.5,-111.69 29.04,-180.38 1.53,-68.41 18.63,-107.29 27.93,-173.74l25.46 -183.97c10.85,-60.09 7.83,-120.23 21.11,-180.57 6.19,-28.1 13.57,-60.07 16.64,-84.2 4.67,-36.67 2.27,-71.55 7.27,-101.31l48.96 -369.89c0,-91.91 -7.21,-134.35 -52.75,-210.97 -0.88,-1.48 -1.86,-3.55 -2.74,-5.02 -23.25,-38.86 -62.21,-71.43 -103.05,-98.62 -19.38,-12.9 -41.18,-26.15 -59.66,-33.42l-71.98 -28.86c-130.02,-32.31 -154.57,-28.33 -283.3,-10.46 -29.75,4.13 -86.17,6.57 -110.4,13.71 -77.14,22.74 -166.23,39.56 -244.63,73.4l-136.23 49.94c-31.39,12.08 -65.44,48.97 -75.25,2.51 -7.45,-35.31 2.31,-80.39 -7.97,-124.54 -58.86,-13.71 -414.13,28.26 -520.18,30.61 -50.34,1.11 -38.15,-19.28 -95.32,5.33 -57.42,24.73 -74.83,95.55 -74.83,157.98 0,55.48 131.38,22.84 174.2,35.23 66.43,19.22 38.01,80.9 24.68,124.86 -13.31,43.88 -8.8,52.28 -14.75,101.59 -4,33.09 -13.73,64.9 -20.82,95.52 -8.73,37.71 -4.69,64.28 -11.14,105.21 -5.67,35.99 -14.17,61.27 -21.21,95.14 -6.88,33.09 -4.34,68.18 -11.04,105.31 -6.88,38.11 -13.98,57.66 -21.34,95.01 -5.03,25.53 -6.53,79.91 -10.79,105.57 -6.91,41.63 -12.65,49.77 -20.32,88.28 -4.62,23.2 -6.85,82.39 -10.7,105.64 -7.17,43.18 -14.23,53.67 -21.61,94.74 -6.7,37.23 -4.1,72.2 -10.99,105.37 -7.04,33.86 -15.54,59.14 -21.21,95.14l-22.76 147.88c-14.6,69.53 -6.48,97.36 -96.55,97.36 -41.75,0 -5.44,-62.41 -92.74,-63.01 -65.03,-0.44 -75,17.9 -147.71,0.96 0,-102.4 24.54,-162.64 31.51,-263.24 3.11,-44.84 17.4,-74.77 25.26,-122.11l36.52 -258.24c2.22,-44.47 14.34,-86.6 22.6,-124.77 9.05,-41.8 8.09,-89.62 15.71,-131.66 7.86,-43.35 20.18,-73.81 23.29,-124.09 10.46,-169.33 150.51,-481.28 -112.73,-662.42 -129.92,-89.4 -285.99,-77.96 -431.4,-60.1 -74.43,9.14 -141,15.24 -207.71,32.74 -26.68,7 -45.66,4.38 -74.72,10.61 -28.98,6.21 -32.61,14.45 -63.32,22 -21.98,5.41 -46.72,5.97 -70.82,14.5 -20.54,7.28 -33.12,14.74 -57.2,20.37 -39.15,9.15 -30.68,7.33 -62.77,22.55 -71.77,34.05 -136.43,75.77 -193.23,132.55 -30.01,30 -67.75,57.6 -67.75,102.9 -32.48,2.7 -41.98,26.34 -65.41,74.2 -0.8,1.63 -1.64,3.7 -2.37,5.39 -42.37,97.75 -29.69,200.73 67.92,261.54 1.43,0.89 3.34,2.1 4.79,2.97 80.26,47.85 185.05,30.38 247.49,-37.4 34.86,-37.84 58.39,-75.67 82.76,-118.91 15.48,-27.46 14.68,-44.48 28.12,-72.72 22.17,-46.59 47.8,-197.26 47.8,-254.7 104.38,-55.23 63.72,-38.78 248.21,-38.78 353.78,0 241.22,70.42 232.68,263.72 -3.31,75.14 -49.27,423.82 -69.79,511.94 -50.01,23.99 -142.84,15.54 -207.36,25.34l-203.74 36.72c-36.02,11.6 -56.41,10.02 -97.52,18.83l-238.3 64.21c-149.74,50.69 -276.11,158.66 -358.06,293.49l-24.11 37.94c-11.73,19.37 -10.76,26.08 -18.08,43.97 -52.85,129.25 -89.5,240.31 -10.13,373.09 32.9,55.02 70.65,89.26 128.56,119.65 34.59,18.16 171.98,41.66 214.3,41.66 68.84,0 143.96,0.54 206.77,-18.16 81.71,-24.33 134.22,-32.14 209.99,-69.25l185.65 -101.36c36.57,-20.32 62.24,-65.33 65.28,1.33 3.07,67.27 -10.75,69.36 19.02,121.25 43.24,75.37 80.31,66.19 158.75,66.19 85.98,0 365.42,-79.85 457.64,-124.1 11.82,24.63 6.25,62.05 38.78,62.05l822.19 0c44.26,0 38.78,-79.27 38.78,-116.35 0,-56.04 -155.43,-24.51 -186.15,-31.02 0,-86.01 28.52,-141.29 31.02,-224.95 2.71,-91.21 28.4,-142.96 31.04,-232.68 1.12,-37.83 7.71,-75.61 16.36,-107.75 13.16,-48.86 15.78,-136.12 36.08,-227.63 9.42,-42.44 6.63,-73.43 13.76,-118.11 6.88,-43.11 13.49,-62.77 21.36,-102.73 6.64,-33.68 5.63,-80.41 13.71,-118.16 7.62,-35.62 20.82,-69.56 22.7,-109.17 2.48,-52.6 5.82,-70.34 17.15,-114.72 36,-141.09 -9.55,-154.44 179.72,-208.1 41.2,-11.68 51.57,-26.1 105.76,-26.1 71.19,0 237.51,-14.14 296.51,13.75 42.85,20.25 56.32,39.16 71.85,83.28 20.96,59.56 19.47,55.19 19.47,120.15l-69.73 519.77c-6.51,27.37 -13.87,53.46 -15.41,85.42 -2.97,61.55 -18.81,105.83 -28.24,165.68 -13.43,85.14 -6.65,79.17 -27.23,174.45 -6.87,31.81 -4.14,54.41 -8.75,92.09 -7.71,63.05 -27.04,95.84 -29.04,172.63 -1.36,52.13 -20.2,127.74 -38.8,162.88l-162.88 0c-40.06,59.81 -27.3,147.37 7.76,147.37l1636.63 0c47.22,0 31.02,-79.21 31.02,-108.59 0,-58.52 -149.07,-38.78 -209.43,-38.78 -41.4,-86.29 9.76,-223.3 21.41,-312.13 8.79,-67.07 5.03,-82.66 21.88,-156.51 16.57,-72.6 -7.76,-256.21 83.2,-107.73 19.21,31.35 32.65,40.18 54.24,69.86 10.84,14.89 14.49,21.36 25.4,36.65l53.26 70.85c6.95,8.72 8.75,10.12 13.97,17.05l268.94 374.85c5.58,8.44 6.33,8.39 13.58,17.44 63.42,79.15 88.2,169.35 222.95,148.17 114.57,-18.02 377.66,-3.38 508.76,-3.38 57,-118.81 -32.01,-128.18 -101.5,-169.99 -84.32,-50.74 -240.01,-314.18 -311.42,-402.18l-216.98 -310.46c-30.53,-38.65 -169.02,-222.18 -169.02,-249.83 0,-28.05 76.71,-94.28 97.62,-119.57l21.78 -24.75c1.09,-1.17 2.69,-2.81 3.78,-3.98l48.38 -52.45c1.13,-1.13 2.84,-2.67 3.97,-3.8l237.86 -258.55c34.81,-41.65 71.11,-70.93 115.04,-102.14 107.43,-76.32 213.46,-67.22 334.66,-99.7 46.33,-12.42 42.91,-9.12 46.35,-62.58 1.43,-22.28 5.68,-71.4 -32.96,-71.4 -125.89,0 -611.98,-12.3 -698.08,7.76 -45.06,193.37 47.15,142.36 170.64,139.61 -3.62,43.48 -90.24,108.89 -124.8,146.68 -11.98,13.09 -16.91,20.18 -29.25,32.8l-563.88 522.25c-29.85,6.57 -14.15,-15.68 -9.81,-31.5l70.41 -482.08c4.96,-40.58 16.38,-71.39 23.77,-115.85 5.42,-32.61 6.59,-82.9 12.86,-119 6.85,-39.43 20.18,-76.97 22.97,-116.65 3.6,-51.14 5.07,-77.14 14.36,-117.5 11.65,-50.62 14.58,-61.82 17.27,-122.35 1.9,-42.66 14.27,-79.17 21.04,-110.82 9.46,-44.18 6.73,-79.5 14,-125.62 7.54,-47.85 16.91,-67.64 23.9,-115.71 7.36,-50.69 2.9,-76.99 14,-125.62 16.73,-73.32 20.18,-163.11 38.18,-233.3 11.51,-44.86 9.01,-68.22 13.91,-117.94 3.66,-37.08 16.59,-75.11 24.48,-115.14 6.3,-31.95 6.8,-82.7 13.07,-118.78 6.75,-38.78 18.52,-78.31 22.32,-117.3 16.11,-165.46 76,-369.27 -8.18,-524.77 -5.44,-10.06 -11.35,-17.67 -17.6,-28.94l-107.06 -117.88c-118.41,-92.9 -253.54,-79.67 -393.47,-79.67 -69.46,0 -93.09,21.04 -148.46,29.94 -41.58,6.68 -32.59,6 -64.76,20.55 -28.85,13.06 -42.88,8.99 -71.39,21.69 -24.44,10.89 -31.32,14.98 -59.53,25.78l-67.02 26.06c-44.44,13.48 -82.76,46.62 -131.79,46.62 -22.88,0 -16.3,-132.97 -23.27,-162.89l-441.5 31.65c-34.67,2.71 -64.23,11.6 -101.65,14.7 -169.63,14.06 -185.97,-3.51 -185.97,186.35 50.59,33.87 71.07,12.35 138.79,16.37l78.39 14.65c6.73,80.84 -14.97,102.04 -24.29,192.89 -3.34,32.51 -16.04,58.99 -23.24,93.11 -6.5,30.8 -6.97,72.07 -13.54,102.81 -7.66,35.88 -15.22,53.1 -21.24,95.1 -5.97,41.66 -2.5,67.71 -11.18,105.17l-52.84 296.21c-4.72,47.97 -1.97,60.08 -12.05,104.29l-50.42 298.62c-5.61,72.81 -23.97,129.98 -31.04,201.66 -6.01,61.01 -50.52,53.69 -101.44,53.69 -49.87,0 -63.95,-36.82 -106.3,-48.83 -31.99,-9.07 -103.69,-5.47 -149.66,-5.47 -51.43,-76.8 -8.52,-28.04 -0.41,-147.78 8.86,-130.77 38.88,-251.95 59.49,-382.63 7.54,-47.84 3.28,-79.01 14.25,-125.37 11.91,-50.4 16.94,-67.78 19.95,-127.42 2.48,-49.2 15.62,-81.47 23.33,-124.04 7.62,-42.04 6.69,-89.84 15.71,-131.67 20.5,-95.15 23.33,-169.41 41.35,-245.64 16.83,-71.23 29.17,-224.24 -4.23,-281.05 -32.41,-55.12 -63.14,-100.07 -116.01,-139.96 -21.44,-16.18 -69.88,-39.79 -98.59,-48.79 -98.41,-30.85 -228.59,-5.51 -327.15,-6.37 -70.4,-0.62 -267.6,44.97 -344.18,66.91l-248.96 107.84 -127.4 105.29c-1.13,1.13 -2.79,2.71 -3.91,3.85l-85.66 108.26c-28.28,40.32 -74.13,118.71 -74.13,166.32z"/>
   <path class="fil0" d="M2955.23 2001.19l-232.69 0c-61.24,0 -110.28,30.24 -56.76,-56.76l21.48 -48.33c1.47,-2.54 9.16,-13.16 9.52,-13.75 9.32,-15.39 1.92,-1.62 10.29,-20.74l197.12 -384.62c11.28,-20.47 22.58,-39.42 34.16,-58.91l138.77 -264.57c0.75,-1.75 1.34,-3.92 2.05,-5.71 3.8,-9.67 -0.34,-3.2 6.04,-17.23 10.34,-22.68 10.22,-13.58 20.51,-33.79l14.85 -31.69c29.73,-49.87 32.31,-78.41 67.36,-87.77 0.63,28.33 9.32,60.75 16.37,84.47 14.49,48.71 13.08,81.89 36.52,165.16 10,35.55 5.81,58.21 13.48,95.11 6.75,32.48 15.66,45.96 22.4,78.43 7.84,37.76 2.3,59.17 13.69,94.9l86.21 426.14c4.2,30.02 15.35,66.67 -19.82,77.84 -27.9,8.86 -159.02,12.51 -199.47,9.17 -63.91,-5.29 -127.03,-7.35 -202.08,-7.35zm3286.36 -2001.19l56.71 0c21.21,91.08 -17.01,188.18 -22.82,271.94 -3.15,45.45 -1.57,65.15 -10.32,106.02 -23.64,110.41 -14.3,122.76 -26.41,198.53l-21.56 63.77c-27.14,40.83 -6.18,121.73 -12.1,174.04l-12.82 41.48c-11.08,33.57 -7.34,63.47 -11.4,104.95 -2.74,27.9 -10.93,61.22 -17.5,91.09 -14.11,64.11 -9.47,130.52 -25.33,191.85 -17.4,67.25 -12.91,130.87 -27.73,197.2 -5.9,26.37 -13.24,55.24 -18.42,90.17 -5.29,35.62 -0.78,66.42 -7.18,101.41 -7.1,38.81 -13.71,57.02 -20.37,95.99 -5.51,32.23 -3.68,62.22 -8.44,100.15l-60.06 382.07c-2.06,47.88 -0.22,56.82 -9.64,98.95 -19.58,87.6 -15.69,132.43 -26.76,198.18 -6.46,38.36 -12.07,55.78 -18.12,90.47 -6.38,36.64 -4.56,58.19 -8.66,99.93 -2.74,27.91 -10.93,61.21 -17.5,91.09 -14.65,66.56 -10.24,133.5 -24.89,200.06 -6.9,31.35 -14.03,61.94 -17.4,91.41 -5.61,49.03 -8.28,55.85 6.57,83.92 24.26,-2.02 27.55,-7.76 54.3,-7.76l248.21 0c30.18,0 64.24,16.75 76.03,-24.76 5.42,-19.06 2.19,-85.01 7.03,-109.36 26.49,-133.24 14.9,-119.93 28.47,-204.22 6.03,-37.39 15.04,-60.47 20.07,-96.29 14.05,-100.23 6.21,-82.15 29.23,-203.46 8.23,-43.37 6.97,-58.62 10.27,-106.07 4.97,-71.33 28.21,-118.51 30.57,-202.13 1.42,-50.36 59.66,-348.94 62.06,-403.33 3.3,-74.79 23.26,-164.1 23.26,-201.68 0,-7.63 -29.79,-38.78 -46.54,-38.78 -34.75,0 -48.68,9.08 -74.9,5.16 -34.05,-5.09 -50.56,-24.45 -39.82,-56.71 24.04,-72.26 17.21,-117.2 114.52,-119.29l254.95 -16.54c45.54,-4.96 102.02,-20.97 156.15,-22.25 44.49,-1.06 141.04,-26.24 153.11,18.46 5.93,21.97 -17.88,118.55 -22.49,150.95 -7.76,54.56 -7.32,114.53 -20.92,165.23 -15.69,58.44 -10.42,94.21 -20.55,157.85 -9.2,57.85 -25.08,96.62 -26.89,159.27l-44.97 319.59c-13.06,56.5 -11.36,103.91 -20.05,158.36 -8.66,54.26 -25.19,99.29 -27.94,158.21l-39.91 316.89c-8.65,49.86 -22.28,96.11 -22.28,156.12 0,106.01 141.46,27.05 183.36,80.36 16.37,20.83 35.36,98.05 -12.72,98.05l-3661.08 0c-34.37,0 -30.07,-35.31 -22.15,-60.03 7.52,-23.49 15.24,-42.17 22.15,-71.83 58.64,-13.66 146.11,-7.77 217.18,-7.76 187.61,0.05 109.62,-20.42 178.4,-38.78 0,-42.91 1.9,-50.7 -8.43,-84.64 -7.94,-26.09 -11.56,-36.75 -14.83,-70.49 -7.49,-77.08 -78.63,-333.56 -95.12,-440.09 -4.86,-31.42 -13.84,-43.23 -22.41,-70.66 -7.11,-22.72 -6.05,-49.6 -13.09,-72.23 -9.1,-29.18 -17.48,-34.94 -23.55,-69.53 -6.67,-37.98 -6.01,-34.76 -18.83,-66.49 -40.56,-100.36 -1.58,-106.83 -161.66,-88.81 -93.99,10.57 -470.81,1.13 -588.36,1.13 -125.47,0 -108.82,-27.95 -165.24,67.46 -46.63,78.85 -80.16,167.11 -127.05,245.27 -1.2,1.99 -4.52,7.81 -5.59,9.92l-9.26 21.76c-1.06,2.11 -4.4,7.93 -5.59,9.92l-189.94 368.54c-8.82,15.58 -12.25,25.04 -21.22,40.82l-31.35 61.73c-18.24,37.89 -72.49,108.38 -59.29,146.3 15.87,45.6 173.71,29.19 219.01,28.8 41.75,-0.35 93.01,-9.99 93.01,31.09 0,29.38 16.19,108.59 -31.02,108.59 -124.23,0 -596.9,12.2 -682.58,-7.76 -9.31,-39.97 -9.31,-84.13 0,-124.1 29.32,-6.83 36.5,-3.97 68.95,-8.62l44.04 -18.01c66.6,-36.97 103.48,-118.05 143.67,-182.1 5.93,-9.43 8.22,-15.14 13.81,-24.98l186.56 -317.61c7.06,-11.66 8.19,-10.39 15.45,-23.33l176.88 -319.54c42.2,-67.38 81.58,-159.23 120.95,-220.35 11.91,-18.49 4.18,-1.39 15.22,-23.56l475.59 -912.84c11.53,-22.95 14.75,-20.13 27.63,-49.94l103.14 -199.37c12.73,-23.09 14.06,-28.25 25.52,-52.04l92 -179.48c9.2,-18.17 4.93,-6.81 15.1,-23.69 12.2,-20.25 13.43,-31.42 25.33,-52.23 24.06,-42.06 35.63,-81.14 62.46,-123.69 9.25,-14.68 1.43,0.25 9.3,-13.96l111.37 -214.41c24.35,-44.34 50.09,-111.84 113.1,-111.84 5.93,0 28.5,30.61 32.75,37.06l68.4 241.87c9.89,35.14 7.03,66.58 20.77,103.33 13.69,36.62 13.42,65.36 22.41,101.69 10.16,41.01 20.5,48.44 26.75,97.36l121.63 498.89c8.73,56.6 9.17,56.91 24.44,99.66 12.48,34.95 6.47,66.04 19.84,104.27l23.05 101.06c7.74,37.86 21.84,54.09 27.53,96.58l94.43 409.75c4.53,35.72 22.04,58.19 27.9,96.19 8.49,55.04 11,59.79 23.71,100.4 11.53,36.84 8.39,63.86 21.78,102.32l21.75 102.36c7.47,35.18 22.92,61.19 27.44,96.66 6.21,48.71 16.44,56.32 26.67,97.44 12.99,52.28 29.16,157.02 46.6,201.6l26.84 97.27c6.53,20.9 11.34,23.35 17.8,44.25 5.46,17.67 4.46,31.13 10.25,51.8 17.86,63.86 70.72,149.05 132.26,178 98.52,46.36 90.74,-66.81 111.46,-136.45l78.01 -449.43c2.88,-41.9 1.73,-56.97 7.98,-92.85l24.56 -184.88c6.01,-59.51 25.1,-119.32 29.49,-179.93l67.79 -560.49c10.02,-67.76 23.94,-109.51 25.64,-183.79l53.48 -365.38c11.25,-62.28 9.37,-129.62 22.59,-186.83l71.39 -556.89c-49.8,-13.29 -6.38,-24.21 -108.53,-23.33 -51.52,0.44 -82.56,2 -124.17,-7.69 -5.13,-22.01 -7.76,-13.26 -7.76,-31.03 0,-23.2 22.56,-75.18 33.77,-90.34 37.25,-50.34 349.82,-41.94 431.89,-56.77l156.56 -29.59c23.09,-7.41 -9.7,4.12 10.96,-4.55 1.68,-0.7 3.52,-1.86 5.18,-2.58 1.66,-0.71 3.49,-1.88 5.18,-2.57 1.7,-0.7 3.56,-1.79 5.33,-2.42l134.53 -5.09c-22.46,46.82 -20.35,141.52 -30.84,201.85 -6.09,35.03 -14.64,59.16 -20.5,95.85 -5.62,35.19 -2.86,71.95 -8.45,100.14 -7.61,38.41 -13.35,55.37 -20.19,96.16 -4.67,27.8 -2.84,66.18 -8.29,100.3 -5.86,36.7 -14.42,60.82 -20.5,95.85 -6,34.52 -4.72,59.82 -9.56,99.03l-30.17 202.52c-7.1,73.45 -26.51,122.57 -30.08,194.87l-61.76 388.12c-3.25,73.15 -25.73,130.71 -30.68,202.01 -5.86,84.3 -23.82,127.42 -30.48,194.45l-29.07 195.86c-5.94,37.17 -3.72,74.42 -9.36,106.99 -6.83,39.45 -12.4,47.74 -19.34,89.25 -4.82,28.84 -3.13,72.14 -9.47,106.88 -7.07,38.8 -13.7,57.01 -20.36,95.99 -5.56,32.55 -3.51,69.86 -9.43,106.91 -5.36,33.57 -14.13,59.77 -19.41,89.18 -7,38.95 -5.4,63.25 -10.64,105.7 -8.2,66.35 -24.95,126.46 -29.43,195.51 -2.07,31.97 -15.53,58.15 -22.88,85.71 13.3,6.38 13.01,8.11 34.43,10.37l337.88 -2.61c23.79,0 13.3,12.49 36.31,-2.19 35.7,-22.75 32.39,-89.43 33.5,-129.67 1.87,-67.99 56.56,-301.7 61.56,-372.8l57.04 -369.56c5.41,-27.3 3.31,-64.85 8.5,-100.09 5.11,-34.69 13.26,-64.53 18.21,-90.39 17.53,-91.68 32.34,-304.27 47.77,-378.84 6.85,-33.09 11.53,-55.96 17.57,-91.03 5.93,-34.47 3.54,-60.55 7.59,-101.01 6.07,-60.76 28.4,-118.66 30.05,-187.13 1.81,-75.62 15.15,-121.6 25.63,-191.55 9.2,-61.45 7.76,-123.22 22.47,-186.96l45.29 -389.08c4.64,-64.31 28.69,-117.6 30.64,-186.54 1.38,-48.75 7.14,-55.34 11.34,-97.25 13.22,-131.71 -220.76,9.87 -220.76,-81.15 0,-14.66 20.93,-103.96 26.41,-113.22 22.54,-38.11 105.56,-18.64 151.99,-18.64 47.48,0 425.73,-45.02 467.45,-60l10.91 -4.6c9.2,-3.03 19.91,-4.52 31.16,-5.21z"/>
   <g>
    <path class="fil1" d="M4227.31 6468.95c-0.8,-35.54 -11.1,-41.86 -7.62,-84.65 9.79,-120.28 16.04,-131.37 34.49,-245.27 5.24,-32.38 1.97,-55.55 5.2,-87.88 2.12,-21.17 9.48,-57.42 14.47,-78.62 13.51,-57.49 12.39,-116.1 20.82,-173.09 8.49,-57.51 24.51,-104.24 25.8,-160.36l40.81 -331.5c3.71,-22.34 11.58,-46.4 16.98,-76.1 12.04,-66.27 -39.42,-145.83 164.95,-117.8 28.23,3.87 47.99,5.57 87.66,5.42 42.84,-0.16 49.96,6.27 85.12,7.96 32.46,1.55 65.55,0.51 87.3,5.77 28.79,6.95 43.34,15.64 71.23,21.84 83.08,18.49 193.09,64.28 254.53,125.54 37.56,37.46 76.8,68.77 108.06,124.64 38.24,68.33 48.34,88.23 65.16,167.54 26.14,123.34 18.71,40.05 18.71,198.47l-38.73 201.72c-33.52,81 -13.33,69.32 -73.37,167.08l-33.16 52.16c-35.27,50.06 -93.89,115.55 -147.48,155.03 -86.48,63.71 -146.49,102.25 -254.12,133.71 -15.42,4.51 -28.93,11.25 -45.21,16.83 -52.11,17.89 -235.79,45.46 -310.77,28.96 -138.96,-30.58 -74.75,0.35 -168.98,-48.23 -4.69,-2.42 -16.29,-6.51 -21.84,-9.18zm-267.03 -1656.5c-65.03,39.34 -137.95,96.82 -198.36,134.43l-43.55 237.48c-6.95,47.85 -4,80.75 -12.81,126.8 -7.1,37.17 -19.85,78.26 -21.21,126.17 -1.45,51.19 -6.61,79.17 -17.01,122.61 -11.84,49.43 -8.61,72.63 -15.97,131.39 -4.72,37.67 -15.51,75.66 -22.58,117.04 -6.75,39.47 -6.92,92.21 -14.06,133.32 -6.8,39.09 -20.36,77.42 -23.05,116.57 -8.73,127.24 -29,161.58 -31.44,247.8 -1.85,65.52 -17.87,172.17 -83.96,203.03 -132.57,61.93 -210,-30.03 -237.86,119.2 -6.77,36.22 -9.17,43.83 3.81,67.55l1675.41 1.45c43.02,-19.08 36.17,-11.12 83.17,-21.08 41.82,-8.87 110.24,-42.74 145.37,-56.29 15.41,-5.95 20.98,-5.67 35.1,-11.44 12.44,-5.08 21.5,-10.92 36.25,-18.04 86.88,-41.92 117.68,-57.74 201,-117.02 1.33,-0.95 3.16,-2.32 4.5,-3.26 83.18,-58.26 147.41,-121.89 212.47,-198.63 1.04,-1.23 2.47,-3.02 3.51,-4.24 1.03,-1.23 2.48,-3.01 3.52,-4.23 1.04,-1.22 2.54,-2.96 3.58,-4.17 8.87,-10.32 17.05,-18.86 24.67,-29.63l77.71 -123.96c7.64,-15.19 7.27,-14.47 16.84,-29.7 2.86,-4.55 3.92,-4.34 8.77,-14.5l95.59 -245.69c28.82,-158.16 40.11,-278.85 -22.03,-431.63 -11.84,-29.11 -17.69,-45.93 -32.76,-75.83 -138.9,-275.66 -417.55,-352.39 -439.64,-382.55 13.83,-18.88 55.05,-38.06 79.96,-51.9 32.04,-17.79 50.75,-32.57 80.49,-51.37l78.11 -53.75c16.42,-14.7 22.23,-17.84 38.38,-31.43 14.75,-12.43 20.77,-21.26 35.75,-34.06 20.22,-17.28 13.24,-8.91 32.41,-29.64l91.82 -109.85c10.33,-16.29 14.82,-22.25 24.26,-37.79l48.43 -91.19c17.77,-33.46 8.47,-9.48 20.05,-49.76 16.23,-56.44 16.69,-6.43 30.98,-100.88 5.31,-35.09 17.38,-61.34 24.72,-107.14 17.56,-109.47 -4.14,-154.96 -22.35,-240.88 -4.11,-19.4 -3.86,-34.65 -9.28,-52.77l-43.75 -95.87c-67.16,-95.55 -61.01,-95.39 -166.44,-174.85l-122.45 -71.47c-93.04,-43.94 -183.35,-50.41 -290.91,-50.37 -95.81,0.03 -165.79,-7.87 -255.96,-7.76l-806.68 0.01c-188,0 -350.82,7.76 -535.2,7.76 -26.23,39.17 -31.02,78.16 -31.02,139.62 221.44,51.59 296.06,-69.36 241.95,156.62 -14.85,62.02 -14.2,119.9 -25.67,183.76 -5.28,29.4 -14.07,55.61 -19.42,89.17 -6.57,41.25 2.96,66.83 -10.71,100.22 223.11,20.27 461.99,0.9 682.58,-1.81 -17.79,-27.73 -14.52,-0.08 -7.22,-93.01 2.4,-30.52 9.56,-70 16.53,-99.87 13.16,-56.41 15.61,-245.1 54.5,-294.54 45.48,-57.79 294.41,-35.68 362.68,-24.92 76.08,11.99 196.6,51.5 256.88,107.68l7.92 7.59c70.18,65.25 98.17,101.16 130.24,187.78 41.06,110.87 11.67,13.43 33.88,144.52 27.9,164.7 5.88,163.05 -10.25,312.16 -2.34,21.68 -2.66,24.7 -11.13,43.16l-53.78 124.62c-45.11,91.91 -160.78,197.84 -247.39,249.03l-31.8 14.74c-39.35,20.05 -0.51,10.62 -63.39,29.69 -30.06,9.12 -23.78,10.6 -43.39,18.66 -92.52,38.04 -304.67,52.21 -409.65,55.95 -49.62,1.77 -68.22,-8.11 -108.74,-8.11 0,-54.28 22.08,-66.26 23.22,-162.93 0.95,-80.16 27.25,-119.39 20.8,-170.6 -0.68,-39.27 7.61,-56.48 -29.46,-56.64 -59.88,23.47 -115.53,77.49 -185.21,77.29l0 25.89c-37.23,8.68 -116.69,54.38 -148.53,76.41 -39.57,27.39 -103.83,76.83 -153.56,79.14l11.79 10.74z"/>
   </g>
   <path class="fil0" d="M13116.29 1923.63c0,-62.88 54.52,-173.5 94.9,-223.12 30.25,-37.17 16.49,-32.91 70.76,-92.13 43.32,-47.27 107.67,-107.41 160.39,-142.11 72.46,-47.69 197.84,-85.31 290.89,-43.23 94.22,42.61 109.44,80.45 136.41,166.09 31.84,101.09 16.61,312.62 -18.52,347.98 -38.49,38.72 -294.5,32.79 -373.55,20.82 -47.66,-7.22 -319.12,5.29 -337.93,-4.18 -32.25,-16.26 -23.36,-25.06 -23.36,-30.12zm-86.8 201.67c12.07,-28.99 23.32,-21.29 63.07,-20.33l543.43 -1.76c203.96,-1.31 418.18,8.96 620.52,1.38 27.35,-11.75 48.78,-27.51 53.84,-57.68 9.17,-54.57 -1.43,-236.18 -17.77,-291.23 -9.16,-30.88 -11.41,-64.17 -19.32,-89.27 -5.72,-18.14 -10.7,-23.47 -16.54,-37.76 -23.33,-57.1 -32.36,-89.86 -73.32,-143.87 -54.77,-72.21 -60.96,-81.53 -149.07,-130.16 -38.81,-21.42 -111.24,-44.13 -162.15,-55.04 -64.19,-13.74 -352.29,-9.08 -422.15,-4.05l-170.94 46.25c-37.95,18.78 -94.6,37.27 -147.8,69.37 -46.82,28.26 -87.41,52.96 -129.57,87.62l-174.5 159.02c-17.96,18.54 -31.87,38.26 -48.88,59.71 -9.56,12.07 -16.75,19.86 -24.12,30.18l-11.73 19.3c-0.87,1.47 -1.9,3.51 -2.78,4.98l-78.7 130.72c-23.32,38.81 -93.29,216.86 -102.65,261.9 -14.55,70.04 -14.8,42.86 -25.77,82.83 -12.95,47.19 -36.9,220.69 -36.82,288.95 0.19,161.64 29.79,310.68 101.31,449.41 47.83,92.78 117.91,174.41 202.24,232.12 86.68,59.32 49.51,29.34 104.16,58.72l124.32 46.33c114.51,30.37 289.77,17.08 399.94,5.76 148.93,-15.32 120.91,-16.06 262.67,-63.1l79.53 -36.82c24.65,-11.68 45.86,-27.55 66.67,-41.92 101.74,-70.24 152.26,-111.42 230.46,-211.66 18.1,-23.2 29.92,-38.5 47.53,-61.07l51.31 -80.54c7.29,-10.95 6.3,-7.37 12.94,-18.09 50.11,-80.85 -54.9,-95.05 -61.96,-92.99l-215.77 187.56c-113.67,67.02 -154.32,83.41 -284.05,111.54 -192.01,41.65 -366.91,-12.24 -491.43,-153.32 -54.13,-61.33 -76.39,-127.49 -90.12,-204.63 -7.63,-42.86 -21.96,-74.02 -26.79,-120.58 -4.39,-42.37 -1.03,-102.1 -1.03,-146.35 0,-45.35 -3.75,-101.74 1.94,-145.44 4.67,-35.86 22.68,-88.06 19.85,-126.04z"/>
   <path class="fil2" d="M10735.04 2474.33c0,115.39 -1.43,260.1 44.02,367.08 9.23,21.71 3.69,9.56 9.43,29.36 8.88,30.66 -0.33,9.68 14.04,32.5l123.45 179.06 116.74 100.44c12.54,10.1 7.79,7.87 22.11,16.66l54.25 31.07c14.7,7.51 16.11,6.68 31.34,15.2 54.62,30.6 206.6,81.84 267.21,81.84l162.89 0c95.34,0 266.39,-64.63 350.87,-114.52 12.04,-7.12 19.34,-10.05 29.91,-16.63l152.76 -110.97c86.71,-74.24 163.14,-158 233.22,-247.68 18.49,-23.66 33.2,-60.67 63.19,-68.67l0 -54.3c-81.55,-21.78 -61.29,-104.58 -137.23,17.9 -58.18,93.84 -163.49,184.44 -264.03,232.39 -55.37,26.41 -116.07,61.42 -180.22,67.99 -153.1,15.69 -228.96,40.8 -388.65,-61.76 -90.47,-58.1 -104.81,-105.11 -153.28,-188.01 -23.35,-39.93 -11.01,-41.38 -25.52,-83.06 -37.32,-107.15 -22.31,-212.76 -22.31,-334.5 0,-36.19 3.13,-57.25 7.13,-85.95l34.67 -167c15.4,-39.06 12.83,-32.3 22.2,-78.64 8.18,-40.49 37.91,-101.04 54.23,-139.68 45.88,-108.72 96.06,-228.99 178.36,-318.05l111.94 -89.73c86.09,-55.96 285.88,-84.05 356.47,-41.08 28.41,17.3 50.81,37.4 61.74,70.12 73.55,220.14 -77.02,508.73 305.71,508.73 87.5,0 170.64,-64.4 170.64,-155.13 0,-45.76 -22.38,-126.95 -34.18,-175.24 -8.54,-34.94 -12.54,-22.95 -24.13,-53.44 -15.42,-40.53 -31.37,-79.92 -60.03,-110.61 -23.27,-24.91 -14.99,-31.98 -50.38,-65.97 -12.98,-12.47 -21.43,-23.51 -35.15,-34.66l-140.06 -77.12c-32.78,-11.23 -18.1,-12.39 -48.61,-21.2l-189.19 -35.75c-112.39,0 -237.78,-10.93 -344.53,20.02 -46.77,13.56 -67.03,9.69 -110.35,29.26l-225.27 108.27c-68.11,43.08 -133.33,93.01 -185.36,155.93l-171.55 239.55 -118.68 284.66c-15.79,38.21 -14.7,70.51 -28.87,110.75l-40.93 230.55z"/>
   <path class="fil3" d="M4545.33 4158.03c-220.59,2.71 -459.47,22.08 -682.58,1.81 -75.96,-8.88 -2162.93,-2.34 -2233.88,-2.34 -121.6,0 -1429.9,17.1 -1525.66,3.6 -68.76,-9.69 -43.19,45.65 -18.25,66.52 88.02,73.63 42.29,77.35 202.04,77.26l1388.42 7.76c372.31,0 744.63,0 1116.94,0 187.47,0 357.9,7.76 550.71,7.76l1466.15 0.16c29.98,-3.36 113,-60.48 147.17,-77.73l-15.04 -4.24c-49.63,-7.92 23.36,1.01 -15.42,-2.38 -8.82,-0.76 -28.79,0.53 -39.74,0.22 3.11,-38.8 -3.18,-9.33 14.7,-41.32l9 -19.94 124.1 -6.42c-30.9,-33.88 -61.78,-17.01 -101.96,-12.39l-386.7 1.67z"/>
   <path class="fil3" d="M4250.58 4620.27c69.68,0.21 125.32,-53.82 185.21,-77.29l47.49 -19.2c5.09,-9.17 4.7,-2.91 7.07,-17.77 1.15,-7.18 0.68,-15.43 0.68,-22.74 -1351.32,0 -2706.55,10.08 -4057.36,-0.67 -114.49,-0.91 -31.43,50.8 27.38,113.6 38.38,40.98 143,26.69 229.27,26.69 1016.11,0 2032.21,0 3048.32,0 141.12,0 383.06,14.28 511.93,-2.62z"/>
   <path class="fil4" d="M3761.91 4946.88c60.42,-37.61 133.33,-95.1 198.36,-134.43 -86.4,-11.13 -2233.19,-2.89 -2432.25,-3.19 -256.98,-0.37 -563.76,15.02 -814.43,-4.67 -11.59,21.99 -11.16,14.64 -1.9,36.59 3.61,8.56 81.39,103.17 141.53,107.48 30.19,2.16 69.62,0.01 100.82,0.01l2008.94 -7.76c151.67,0 693.1,-7.01 798.92,5.97z"/>
   <path class="fil5" d="M3420.63 5065.02l-2451.07 0c0,74 -0.98,31.79 60.13,95 26.02,26.91 36.41,44.62 87.25,44.62l2210.61 0c47.08,0 90.32,-49.27 156.5,-76.2 50.81,-20.68 50.07,-52.46 38.3,-64.24 -13.72,-13.73 -68.33,0.82 -101.72,0.82z"/>
   <path class="fil6" d="M822.19 5770.86c0,17.87 5.39,23.27 23.27,23.27l2171.83 0c75.65,0 75.65,-139.62 0,-139.62l-2071 0c-74.39,0 -67.85,28.94 -105.62,72.78 -13.07,15.17 -18.48,17.16 -18.48,43.58z"/>
   <path class="fil5" d="M1054.89 5499.38l1962.4 0c20.95,0 21.39,-3.7 38.78,-7.75 22.41,-46.7 25.6,-131.86 -23.27,-131.86l-1915.86 0c-18.78,0 -25.43,12.77 -35.88,26.17 -18.26,23.41 -94.4,113.44 -26.17,113.44z"/>
   <path class="fil2" d="M6608.56 798.93c0,58.71 41.44,145.6 105.08,174.16 84.18,37.76 56.02,27.51 174.16,27.51 29.04,0 34.84,-4.16 55.79,-14.02 13.27,-6.25 7.59,-4.24 26.89,-11.89 16.12,-6.39 13.84,-3.68 26.88,-11.9 144.28,-90.93 230.92,-333.42 102.1,-468.59 -97.26,-102.06 -176.76,-64.85 -246.45,-40.32 -19.91,7 -17.35,3.49 -34.71,11.83 -36.53,17.55 -70.66,49.99 -99.36,79.03 -52.73,53.37 -45.45,65.62 -70.3,108.1l-40.08 146.08z"/>
   <path class="fil5" d="M1830.58 5957.02l0 31.02 46.26 -8.88c6.45,24.38 15.17,30.17 33.57,45.36 10.62,8.77 13.04,9.75 21.17,17.61 24.17,23.34 32.65,44.8 76.8,47.3l411.65 -0.56c100.33,0 596.29,15.04 643.79,-7.76 12.49,-26.02 7.76,-70.35 7.76,-108.59 -49.33,-33.03 -54.33,-23.37 -131.86,-23.27l-1038.61 1.07c-48.69,7.59 -12,15.93 -70.54,6.69z"/>
   <path class="fil5" d="M1977.92 3979.1c0,20.28 -0.61,31.02 23.27,31.02l1085.92 0c72.39,0 57.4,-85.24 46.54,-131.86 -84.98,-19.8 -899.38,-7.76 -1054.89,-7.76 -22.3,0 -100.83,88.18 -100.83,108.59z"/>
   <path class="fil7" d="M643.79 6020.59c16.95,13.14 10.22,3.45 15.95,27.97 1.04,4.48 1.18,31.37 1.48,34.71 15.91,-7.04 33.1,-16.56 46.41,5.61l921.68 0.44c54.15,-0.08 41.28,-3.43 112.46,-42.67 23.74,-13.09 27.96,-13.63 52.38,-25.35 15.6,-7.49 9.41,-2.16 23.63,-15.29 13.78,-12.72 10.1,-9.52 12.8,-17.97l0 -31.02c2.08,-12.99 19.04,-8.78 -61.78,-7.91l-876.8 0.16c-49.2,0 -116.07,-3.92 -163.05,-0.16 -28.3,2.27 -36.5,8.06 -51.26,26.37 -10.12,12.54 -29.73,35.68 -33.9,45.12z"/>
   <path class="fil5" d="M2233.88 3692.11c82.25,19.16 716.97,7.76 853.22,7.76 72.39,0 57.4,-85.25 46.54,-131.86 -81.3,-18.94 -660.94,-7.76 -791.17,-7.76 -16.29,0 -78.72,67.5 -92.68,85.72 -13.17,17.18 -15.23,15.64 -15.91,46.15z"/>
   <path class="fil6" d="M2202.85 6267.28c0,60.72 24.16,62.37 37.12,71.48l9.12 6.39c30.92,24.86 46.63,61.75 108.89,61.75l667.06 0c58.1,0 46.54,-31.24 46.54,-100.84 0,-18.64 -12.57,-22.8 -23.27,-38.78 -134.51,0 -776.3,-7.24 -845.46,0z"/>
   <path class="fil8" d="M14605.18 1597.84c-4.54,-39.65 -11.29,-54.25 8.13,-87.57 28.45,1.82 15.02,1.75 23.61,10.01 21.84,19.6 75.19,84.14 77.23,108.59 -35.36,0.79 -24.5,6.57 -54.74,7.4 -34.72,0.96 -25.11,-6.58 -61.61,-7.4 1.78,-20.9 1.18,-17.32 7.39,-31.03zm-108.22 -144.86c2.34,-31.92 5.77,-29.7 18.67,-53.64 14.86,-27.59 4.33,-23.2 35.63,-36.87l3.6 234.06c-35.58,-6.19 -101.83,-100.95 -57.89,-143.55zm139.61 -49.05c31.74,0 43.97,7.86 46.54,38.78 -37.44,8.72 -41.75,13.91 -69.81,0 1.52,-18.25 7.01,-38.78 23.27,-38.78zm-54.3 -46.54c-7.79,3.32 -32.14,-0.2 -4.82,-10.83 20.44,-7.96 11.06,8.18 4.82,10.83zm62.05 -38.78c59.21,0 124.13,27.58 148.42,84.28 17.93,41.85 36.27,55.17 12.05,114.98 -6.36,15.71 -6.93,17.7 -12.91,33.63 -9.59,25.51 -19.06,38.97 -46.72,46.35 0,-68.85 -12.37,-43.17 -38.78,-93.07 30.85,-46.07 38.78,-14.6 38.78,-85.32 0,-66.44 -78.29,-77.56 -147.37,-77.56 11.5,-15.7 17.8,-23.27 46.53,-23.27zm-209.43 162.89c0,14.73 14.51,76.82 19.87,88.73 6.32,14.03 12.1,16.5 22.33,31.96 50.17,75.73 136.88,111.85 222.7,89.91 66.31,-16.95 39.88,-3.5 93.09,-46.53 18.28,-14.78 32.91,-29.14 45.14,-47.94 43.33,-66.6 31.23,-54.97 31.23,-170.44 0,-37.04 -45.06,-90.27 -71.52,-114.63 -14.85,-13.68 -9.52,-8.87 -26.7,-19.85 -43.19,-27.6 -52.92,-36.17 -111.2,-36.17 -91.28,0 -169.45,52.75 -205.25,128.29 -9.41,19.85 -19.7,69.64 -19.7,96.66z"/>
   <path class="fil9" d="M395.58 6391.39c14,9.37 13.63,15.51 31.03,15.51 86.92,0 613.71,5.37 655.35,-3.95l92.27 -47.35c44.85,-27.19 91.05,-26.04 105.6,-80.55 -51.78,-27.4 -45.36,-13.06 -101.22,-8.19l-643.81 0.04c-79.17,-0.76 -59.3,11.46 -115.11,78.8 -18.63,22.47 -21.32,12.27 -24.11,45.7z"/>
   <path class="fil5" d="M2474.33 3389.61c0,44.8 82.67,23.16 131.85,23.26l511.94 0.01c41.15,-61.45 28.39,-139.62 -15.52,-139.62l-496.42 0c-55.77,0 -52.8,15.05 -79.52,44.59 -16.88,18.66 -52.34,42.86 -52.34,71.76z"/>
   <path class="fil10" d="M2505.36 6585.3c0,22.13 20.52,23.49 63.92,67.94 20.31,20.8 45.53,48.41 83.45,48.41l364.56 0c66.45,0 54.3,-49.68 54.3,-100.83 0,-47.86 -79.44,-28.61 -124.14,-30.99 -49.47,-2.63 -93.65,-7.8 -155.09,-7.79 -54.3,0.01 -108.62,-0.16 -162.91,0.03 -48.39,0.16 -124.08,-23.42 -124.08,23.24z"/>
   <path class="fil11" d="M224.94 6709.4l286.99 0c21.95,0 65.09,-25.34 86.02,-38.09 14.63,-8.91 8.26,-8.36 28.2,-18.34 63.45,-31.75 91.61,-32.32 95.2,-75.44 -74.53,-17.37 -325.61,-7.76 -418.86,-7.76 -50.43,0 -51.08,33.86 -75.83,63.81 -16.16,19.55 -55.91,75.81 -1.73,75.81z"/>
   <path class="fil5" d="M2753.57 3102.62l349.04 0c50.95,0 57.75,-139.62 0,-139.62l-248.21 0c-50.61,0 -173.54,139.62 -100.84,139.62z"/>
   <path class="fil11" d="M2900.94 6980.88l170.64 0c0,-149.06 50,-131.86 -232.69,-131.86 -87.46,0 39.83,99.6 39.92,99.7l22.13 32.17z"/>
   <path class="fil11" d="M2963 2823.38c51.8,12.07 178.4,31.37 178.4,-46.54 0,-70.31 17.88,-197.61 -52.33,-138.47l-44.12 57.53c-77.22,94.95 -81.95,63.72 -81.95,127.48z"/>
   <path class="fil12" d="M4917.64 6697.3l-1675.41 -1.45c38.51,26.42 343.22,13.56 411.09,13.56 213.53,0 1194.29,12.77 1264.31,-12.1z"/>
   <path class="fil13" d="M13029.49 2125.29c45.67,-21.69 36.66,-7.55 133.34,-7.74l791.18 -0.01c85.51,0 242.38,15.76 302.5,-12.95 -202.34,7.57 -416.56,-2.69 -620.52,-1.38l-543.43 1.76c-39.74,-0.96 -50.99,-8.66 -63.07,20.33z"/>
   <path class="fil11" d="M-0 6980.88l10.49 0c48.07,-0.03 32.81,-0.5 48.48,-10.84 15.44,-10.19 26.62,-22.9 44.92,-32.65 23.68,-12.62 27.72,-7.75 49.77,-20.04 27.14,-15.13 18.76,-21.75 48.01,-29.56l0 -31.03c-90.88,-21.17 -122.81,-9.01 -156.68,37.24l-6.92 8.6c-12.55,16.11 -32.26,37.74 -36.62,56.46 -0.9,3.9 -1.3,6.8 -1.45,9.59l0 11.8 0 0.43z"/>
   <path class="fil14" d="M4956.38 4242.83l12.01 -15.52c9.1,-8.04 -1.72,-2.96 14.97,-11.18 8.73,-4.31 11.13,-2.83 19.6,-4.33 5.14,-3.44 22.61,-14.21 27.63,-20.29 22.97,-27.86 4.35,-21.72 3.4,-22.76l-124.1 6.42 -9 19.94c-17.88,31.99 -11.59,2.52 -14.7,41.32 10.94,0.31 30.92,-0.98 39.74,-0.22 38.78,3.4 -34.21,-5.54 15.42,2.38l15.04 4.24z"/>
   <path class="fil15" d="M14496.96 1452.98c-43.94,42.61 22.31,137.37 57.89,143.55l-3.6 -234.06 -7.97 165.15c1.61,30.4 7.17,19.08 7.97,54.71 -19.66,-5.24 -30.3,-12.35 -46.79,-46.29 -11.69,-24.04 -7.51,-48.32 -7.51,-83.06z"/>
   <path class="fil14" d="M661.84 6088.88l-0.61 -5.61c-0.29,-3.34 -0.44,-30.23 -1.48,-34.71 -5.73,-24.52 1,-14.83 -15.95,-27.97 -20.76,24.73 -23.48,20.37 -31.03,52.78 20.35,13.63 14.28,14.83 49.07,15.51z"/>
   <path class="fil12" d="M14605.18 1597.84c1.15,-1.46 3.5,-5.21 4.03,-3.87 0.18,0.44 17.48,-0.72 4.09,-58.19l23.61 -15.51c-8.58,-8.26 4.84,-8.19 -23.61,-10.01 -19.41,33.33 -12.66,47.92 -8.13,87.57z"/>
   <path class="fil16" d="M4435.78 4542.99c37.06,0.16 28.77,17.37 29.46,56.64 16.18,-10.2 5.06,3.69 9.38,-16.24 1.49,-6.87 0.8,-14.88 1.48,-22.23 2.35,-25.19 1.75,-16.61 7.17,-37.37l-47.49 19.2z"/>
   <g>
    <path class="fil17" d="M8167.62 5881.34c31.7,-4.2 8.83,-1.09 16.53,20.3 0,0 5.63,27.78 6.74,32.08l62.05 187.03c26.77,13.73 29.83,20.02 69.81,19.55 11.61,-30.11 19.18,-29.92 27.75,-62.48l24.26 -68.77c24.87,-54.82 -13.25,-25.67 40.11,-115.02 0.83,-1.38 2.17,-3.6 2.91,-4.84l5.79 -9.71c0,54.29 0.15,108.6 -0.01,162.89 -0.22,74.37 -19.27,108.59 54.31,108.59 38.85,-58.01 13.49,-58.05 15.2,-194.22 0.95,-74.96 18.8,-137.51 0.31,-216.88l-85.17 -9.67c-53.74,87.44 -28.86,65.48 -45.73,111.47 -9.59,26.14 -9.8,12.7 -18.56,35.74l-35.36 119.77c-7.71,38.83 11.07,16.97 -16.86,37.43l-47.69 -153.97c-18.41,-34.76 -6.38,-60.15 -53.14,-148.53 -34.55,0 -62.28,-4.94 -90.07,7.76l4.97 397.31 45.58 -4.35c9.74,-53.65 -17.75,-229.41 16.24,-251.46z"/>
    <path class="fil17" d="M10680.74 6073.37c0,-49.13 0.02,-98.25 0,-147.38 -0.01,-23.57 -0.49,-47 -0.67,-70.48 -0.48,-61.35 -6.2,-53.63 85.99,-53.63 159.2,0 119.12,191.47 98.89,223 -1.24,1.94 -5.11,7.22 -6.39,9.12 -27.94,41.52 -6.18,25.17 -34.6,35.21 -38.21,13.5 -122.69,8.49 -143.23,4.15zm-77.56 -294.75l0 318.01c0,75.49 67.9,54.3 201.67,54.3 62.89,0 155.13,-95.52 155.13,-178.4 0,-66.84 6.81,-81.89 -16.49,-130.88 -8.85,-18.62 -14.95,-33.93 -27.81,-49.76 -68.09,-83.83 -125.27,-59.81 -281.48,-59.81 -23.84,0 -31.02,22.72 -31.02,46.54z"/>
    <path class="fil17" d="M9020.84 5917.88c25.95,16.41 8.34,177.52 16.44,216.34l53.36 7.59c13.26,-31.85 7.89,-77.27 7.75,-115 -0.07,-19.04 -1.48,-44.3 -0.44,-62.52 1.74,-30.38 4.39,-28.5 15.58,-46.07 11.97,-20.32 8.77,-15.27 23.74,-30.16l50.67 3.48 4.19 26.68c9.5,49.25 0.01,193.98 14.86,224.94 17.4,8.35 42.07,11.68 55.35,-6.29 7.09,-9.59 26.1,-228.73 -19.82,-277.46 -74.46,-79 -124.1,-5.58 -167.4,4.51 -27.34,-18.31 -47.67,-56.41 -103.1,-33.65 -19.55,8.03 -26.09,22.99 -45.16,23.44 -36.5,0.85 -3.65,-16.68 -53.41,-20.82 -25.45,48.11 -15.51,101.01 -15.51,178.4 -0.01,123.97 -15.32,139.62 54.3,139.62 46.58,-69.56 6.38,-73.71 16.3,-162 13.69,-121.77 78.31,-90.56 92.29,-71.05z"/>
    <path class="fil17" d="M11440.88 5858.27l59.11 0.49 -10.71 -49.11c1.99,-18.67 0.26,-22.62 -31.5,-47.87 -18.84,-14.98 -28.27,-24.92 -53.39,-31.99 -40.06,-11.27 -115.57,-5.71 -149.54,10.17 -120.96,56.58 -140.85,247.84 -55.93,358.19 28.67,37.27 69.97,49.85 116.6,54.67 81.5,8.41 123.51,-8.73 172.12,-71.47 33.03,-42.63 54.5,-93.3 -31.25,-93.3 -25.97,38.78 -25.51,97.87 -123.62,93.23 -57.7,-2.73 -84.15,-26.17 -94.67,-68.85 -3.44,-13.96 -8.75,-35.01 -11.68,-50.92 -7.01,-37.95 4.3,-65.08 10.39,-92.21 7.79,-34.69 -4.7,-14.1 15.31,-38.99 9.06,-11.26 22.05,-19.67 36.25,-25.81 39.09,-16.9 97.45,-14.35 126.1,15.92 6,6.33 22.67,31.29 26.41,37.85z"/>
    <path class="fil17" d="M9377.64 6011.31c0,-23.93 3.17,-47.58 11.71,-65.85 40.76,-87.24 127.91,-39.92 127.91,58.1 0,106.49 -139.62,94.18 -139.62,7.76zm-62.05 -271.48c-8.18,35.11 0.57,241.7 -0.06,318.08 -1.3,157.04 30.36,64.82 92.05,85.85 1.79,0.61 3.78,1.72 5.61,2.36 1.87,0.65 3.9,1.62 5.8,2.24 40.47,13.11 72.83,8.66 103.08,-15.89 126.83,-102.87 50.41,-307.32 -66.86,-307.32 -43.85,0 -26.94,19.71 -69.81,23.27 0,-50.29 1.75,-75.54 -7.76,-116.35 -26.67,0 -43.45,0.54 -62.05,7.76z"/>
    <path class="fil17" d="M9690.56 5918.23c9.29,-42.56 33.92,-39.66 85.74,-33.95l5.46 18.44c19.48,13.95 19.95,8.18 22.49,38.78l-116.35 7.76 2.66 -31.03zm-80.22 23.27c0,96.75 -16.11,131.66 52.64,187.81 47.45,38.75 134.63,37.53 192.84,-12.18 25.55,-21.83 41.84,-74.79 -5.04,-74.79 -50.74,0 -42.34,38.78 -93.08,38.78 -72.16,0 -69.81,-28.62 -69.81,-62.05 177.87,0 223.91,15.13 189.98,-96.9 -27.08,-89.42 -160.5,-151.98 -250.37,-25.54 -10.8,15.19 -17.18,20.42 -17.18,44.88z"/>
    <path class="fil17" d="M8641.68 5902.72c11.65,-23.34 16.81,-22.34 45.68,-18.44 27.84,3.77 32.13,9.6 42.26,26.19 6.57,25.34 21.14,37.18 -25.51,39.45 -28.54,1.38 -64.81,-0.66 -94.37,-0.66 2.62,-31.48 13.31,-31.62 31.94,-46.54zm-109.5 46.54c0,62.28 -7.17,109.52 35.46,158.45 28.52,32.73 42.19,40.21 94.11,46.04 70.15,7.87 147.93,-25.79 149.66,-103.66 -99.85,-23.91 -47.27,31.02 -139.61,31.02 -26.16,0 -74.64,-15.77 -62.06,-69.81 47.96,11.17 209.43,29.06 209.43,-38.78 0,-81.11 -109.7,-215 -238.5,-106.64 -22.69,19.09 -25.3,28.62 -37.16,55.92 -12.61,29.03 -11.33,-4.73 -11.33,27.45z"/>
    <path class="fil17" d="M10269.65 5763.1l0 349.05c0,27.53 79.42,89.18 77.97,-30.62 -0.44,-36.36 -0.41,-72.63 -0.41,-109 124.25,-28.94 186.15,30.21 186.15,-46.54 0,-52.18 -71.52,-31.02 -116.34,-31.02 -38.98,0 -34.74,-6.98 -69.81,-7.76 0,-106.1 -6.59,-86.08 116.37,-85.3 57.67,0.37 100.81,14.97 100.81,-46.57 0,-17.87 -5.39,-23.27 -23.27,-23.27l-240.46 0c-18.15,0 -31.02,12.87 -31.02,31.02z"/>
    <path class="fil17" d="M11014.27 5739.84c-7.27,87.37 0,194.25 0,286.99 0,62.15 -17.8,63.08 7.76,116.35 22.07,5.14 69.81,27.69 69.81,-38.78l0 -341.29c0,-41.9 -53.72,-32.53 -77.57,-23.27z"/>
    <path class="fil17" d="M10013.68 5848.43c-34.29,-2.85 -109.83,-65.06 -87.32,87.57 9.58,64.93 -19.91,113.16 2,207.18 92.27,21.5 66.46,-5.54 69.34,-163.36 2.83,-154.57 127.17,-2.58 93.55,-146.9 -27.03,-6.3 -68,-21.67 -77.57,15.51z"/>
    <path class="fil17" d="M8167.62 5881.34c-34,22.05 -6.51,197.81 -16.24,251.46l-45.58 4.35 -4.97 -397.31c-24.16,30.06 -10.77,128.45 -10.77,178.4 0,102.84 -29.98,268.5 58.57,230.14 27.14,-11.76 19.41,-47.03 19.07,-82.69 -0.31,-33.72 0.55,-67.7 0.09,-101.33 -0.2,-15.09 -1.79,-28.81 -2.44,-42.06 -0.89,-18.06 1.6,-13.88 2.27,-40.96z"/>
    <path class="fil17" d="M9090.65 6141.82l-53.36 -7.59c-8.1,-38.83 9.51,-199.94 -16.44,-216.34 0,73.5 -6.45,164.32 7.76,225.29 30.53,7.12 33.09,16.23 62.05,-1.35z"/>
    <path class="fil17" d="M9690.56 5918.23c32.51,-21.59 40.42,-15.51 91.2,-15.51l-5.46 -18.44c-51.81,-5.71 -76.45,-8.6 -85.74,33.95z"/>
    <path class="fil17" d="M8641.68 5902.72c43.85,0 53.33,1.13 87.94,7.76 -10.14,-16.59 -14.42,-22.43 -42.26,-26.19 -28.87,-3.9 -34.04,-4.9 -45.68,18.44z"/>
    <path class="fil17" d="M11440.88 5858.27c33.6,22.65 36.74,15.41 69.81,-2.09 0,-38.69 5.79,-28.17 -21.4,-46.54l10.71 49.11 -59.11 -0.49z"/>
    <path class="fil17" d="M9113.54 5918.23c36.57,-23.72 42.11,-23.17 78.6,0l-4.19 -26.68 -50.67 -3.48c-14.97,14.89 -11.77,9.85 -23.74,30.16z"/>
    <path class="fil17" d="M8322.75 6140.28c-39.97,0.48 -43.04,-5.82 -69.81,-19.55 5.27,18.7 5.74,22.31 26.13,28.08 27.03,7.66 31.3,1.77 43.68,-8.53z"/>
   </g>
   <path class="fil18" d="M661.22 6083.26l0.61 5.61 45.79 0c-13.31,-22.18 -30.5,-12.65 -46.41,-5.61z"/>
   <path class="fil19" d="M4968.39 4227.31c19.15,-3.66 4.52,2.94 21.23,-5.32 10.72,-5.29 7.43,-5.06 13.34,-10.19 -8.48,1.5 -10.87,0.02 -19.6,4.33 -16.68,8.23 -5.87,3.14 -14.97,11.18z"/>
  </g>
 </g>
</svg>
