<?xml version="1.0" encoding="UTF-8"?>
<!DOCTYPE svg PUBLIC "-//W3C//DTD SVG 1.1//EN" "http://www.w3.org/Graphics/SVG/1.1/DTD/svg11.dtd">
<!-- Creator: CorelDRAW -->
<svg xmlns="http://www.w3.org/2000/svg" xml:space="preserve" width="122.414mm" height="122.414mm" version="1.1" style="shape-rendering:geometricPrecision; text-rendering:geometricPrecision; image-rendering:optimizeQuality; fill-rule:evenodd; clip-rule:evenodd"
viewBox="0 0 3034.19 3034.19"
 xmlns:xlink="http://www.w3.org/1999/xlink"
 xmlns:xodm="http://www.corel.com/coreldraw/odm/2003">
 <defs>
  <style type="text/css">
   <![CDATA[
    .fil0 {fill:#60C2D0}
   ]]>
  </style>
 </defs>
 <g id="Layer_x0020_1">
  <metadata id="CorelCorpID_0Corel-Layer"/>
  <g id="_3082098798944">
   <path class="fil0" d="M2394.17 2081.79c18.8,76.09 -64.67,93.34 -192.01,155.45 -245.8,119.9 -593.71,193.2 -873.2,186.36 -303.03,-7.41 -536.05,-133.57 -768.94,-281.81 -36.37,-23.15 -242.21,-169.79 -241.25,-201.34 1.76,-57.79 110.74,30.7 151.65,54.92 224.74,133.11 485.73,269.43 762.27,295.6 340.98,32.27 720.03,-65.35 1033.26,-191.19 59.44,-23.88 76.29,-47.55 128.23,-18zm-120.44 -131.86c5.2,-34.52 2.39,-24.16 36.1,-42.62 49.13,-26.9 99.89,-43.43 159.79,-50.34 62.8,-7.24 205.06,-7.79 225.22,47.27 23.93,65.36 -61.99,357.89 -179.69,371.85 9.51,-87.17 94.41,-214.28 68.05,-301.93 -66.01,-74.67 -248.35,7 -309.47,-24.24zm-166.54 -771.13l52.65 -0.55 32.88 3.3 -1.08 504.03 -83.41 0.86 -1.02 -33.8 -0.01 -473.83zm-928.37 0l86.51 3.27c0,89.8 0.43,179.71 -0.12,269.49 -0.58,95.31 15.06,160.73 124.53,148.7 162.98,-17.9 126.78,-248.21 126.49,-418.12l86.21 -3.35 -1.64 507.86 -82.41 -1.64 -1.99 -44.87c-51.69,23.49 -72.08,46.27 -143.56,46.27 -125.45,0 -194.02,-75.52 -194.02,-199.93l0.01 -307.7zm1435.39 476.03c-192.82,89.89 -339.7,-26.59 -338.92,-229.72 1.14,-295.72 323.07,-269.18 339.09,-200.94l-1.21 95.88c-40.97,-27.21 -90.46,-81.09 -172.66,-42.51 -109.83,51.55 -110.16,263.47 1.98,311.03 96.36,40.87 152.27,-33.11 171.65,-43.26l0.07 109.52zm-2194.21 -475.74l85.51 1.85c0.22,38.65 0.83,30.14 10.47,43.37 65.57,-81.15 204.35,-42.91 242.2,30.35 43.97,-23.88 39.78,-49.64 96.49,-67.57 105.02,-33.2 229.26,35.65 229.34,203.22l-1.27 295.83 -83.15 -1.27c-3.68,-73.61 8.9,-318.49 -11.26,-364.9 -14.94,-34.39 -70.94,-68.99 -129.41,-51.82 -66.04,19.39 -57.53,67.34 -57.53,130.9l-0.82 286.21 -84.15 1.16c-15.79,-223.7 48.77,-413.44 -104.58,-421.95 -154.94,-8.6 -98,231.83 -107.37,420.79l-84.32 0.81 -0.13 -506.97zm1265.39 430.38c70.91,6.45 272.54,46.31 249.97,-69.71 -11.81,-60.67 -143.72,-67.77 -204.42,-122.67 -72.16,-65.27 -55.89,-175.91 14.38,-222.99 51.7,-34.64 218.06,-55.2 260.61,3.84l0 72.54c-66.08,-20.12 -183.98,-66.84 -224.63,5.02 -72.76,143.87 223.6,77.04 241.42,263.32 17.4,181.93 -190.87,176.48 -337.98,157.86l0.66 -87.21zm433.72 -674.66c105.18,-51.83 155.46,108.7 68.66,151.69 -94.92,47.02 -185.85,-93.95 -68.66,-151.69zm-2119.09 -226.54l0 1617.65c0,355.07 351.64,708.27 708.27,708.27l1617.65 0c355.07,0 708.27,-351.64 708.27,-708.27l0 -1617.65c0,-355.07 -351.64,-708.27 -708.27,-708.27l-1617.65 0c-355.07,0 -708.27,351.64 -708.27,708.27z"/>
  </g>
 </g>
</svg>
