<?xml version="1.0" encoding="UTF-8"?>
<!DOCTYPE svg PUBLIC "-//W3C//DTD SVG 1.1//EN" "http://www.w3.org/Graphics/SVG/1.1/DTD/svg11.dtd">
<!-- Creator: CorelDRAW -->
<svg xmlns="http://www.w3.org/2000/svg" xml:space="preserve" width="168.547mm" height="104.775mm" version="1.1" style="shape-rendering:geometricPrecision; text-rendering:geometricPrecision; image-rendering:optimizeQuality; fill-rule:evenodd; clip-rule:evenodd"
viewBox="0 0 1066.44 662.94"
 xmlns:xlink="http://www.w3.org/1999/xlink"
 xmlns:xodm="http://www.corel.com/coreldraw/odm/2003">
 <defs>
  <style type="text/css">
   <![CDATA[
    .fil1 {fill:#B52A28}
    .fil2 {fill:#74747B}
    .fil0 {fill:#20663C}
   ]]>
  </style>
 </defs>
 <g id="Layer_x0020_1">
  <metadata id="CorelCorpID_0Corel-Layer"/>
  <g id="_3081521240512">
   <path class="fil0" d="M345.47 4.46c21.24,0 109.41,22.56 116.07,26.79 -9.82,2.29 -22.26,6.69 -31.9,10.51 -80.23,31.75 -125.4,49.61 -201.52,106.52 -33.3,24.9 -64.87,53.57 -89.61,86.73 -12.14,16.26 -25.95,34.61 -33.86,53.19 -7.34,17.23 -18.11,47.78 -18.11,71.17 0,113.06 111.69,154.02 214.28,154.02l69.2 -2.23c-6.2,-8.46 -13.61,-6.36 -25.88,-9.83 -9.11,-2.58 -18.14,-5.48 -26.78,-8.93 -79.49,-31.73 -102.43,-124.09 -73.02,-193.98 8.56,-20.35 28.02,-55.19 42.52,-71.32l17.78 -20.17c7.12,-8.47 10.1,-12.16 17.93,-20.02 16.81,-16.87 42.1,-36.03 61.17,-50.43 23.85,-18.01 129.23,-80.67 147.01,-80.67 25.47,0 115.23,53.71 146,74.98 15.6,10.78 27.91,21.46 42.8,33.09l55.8 55.8c6.38,8.16 10.27,13.69 16.22,21.73 29.93,40.42 42.75,73.63 42.75,126.89 0,55.48 -30.84,101.41 -81.93,123.42 -11.63,5.01 -39.79,14.65 -54.23,14.97l0 4.46c70.28,0 138.75,13.64 213.89,-31.65 73.22,-44.13 82.64,-121.07 49.45,-193.75 -47.57,-104.18 -185.79,-188.79 -290.42,-231.9 -11.06,-4.56 -21.07,-7.57 -32.53,-12.11 -16.32,-6.46 -27.18,-6.29 -31.9,-12.74l102.17 -22.83c7.99,-1.35 9.67,-0.4 13.9,-6.18l-2.76 0 -2.71 0 -2.66 0c-53.7,0.01 -80.09,0.26 -134.07,7.35 -59.34,7.8 -29.22,8.87 -88.6,0.24 -50.49,-7.33 -88.24,-7.58 -138.86,-7.59l-2.5 0 -2.52 0 -2.54 0 0 4.46z"/>
   <path class="fil1" d="M387.88 316.96c0,50.03 7.51,79.91 44.08,116.63 56.39,56.64 147.41,56.5 206.49,-2.22 89.31,-88.78 28.79,-250.57 -105.48,-250.57 -79.15,0 -145.09,70.18 -145.09,136.16z"/>
   <path class="fil2" d="M597.7 575.89c0,6.37 2.6,34.06 4.46,37.95l-24.55 0 20.09 -37.95zm191.96 87.05l-27.11 0c-12.12,-1.45 -22,-6.9 -22,-24.55 0,-11.73 6.7,-25.36 6.7,-40.18l-13.39 0c0,-2.07 0.14,-4.48 -0.2,-6.5 -0.76,-4.62 -0.52,-2.26 -2.04,-4.66 -0.36,16.27 -10.94,21.12 -20.42,28.69 -3.41,2.73 -22.65,20.31 -24.22,22.65l35.71 0c-0.19,8.33 -2.79,17.38 -4.46,24.55l-84.87 -0.18c-0.82,0.05 -2.05,0.11 -3.49,0.18l-16.62 0c-6.65,-0.8 -6.99,-2.13 -8.86,-24.55l-42.41 0c-4.77,9.02 -7.79,16.19 -13.39,24.55l-33.48 0c0.79,-9.5 11.56,-24.18 16.6,-32.51l45.64 -77.13c3.71,-6.07 3.96,-8.67 13.65,-8.67 37.2,0 31.52,-3.23 35.33,24.94l16.01 88.9c2.98,-35.77 28.73,-34.27 44.64,-58.04 -35.9,0 -33.74,5.29 -26.79,-24.55l75.89 0 17.86 0c0.51,-22.91 7.47,-20.28 11.77,-21.71 8.07,-2.7 16.49,-5.07 26.18,-5.07 -2.37,10.19 -4.46,13.72 -4.46,26.79l17.86 0c0,8.72 -1.71,16.58 -4.46,22.32 -17.59,0 -20.24,-4.47 -23.14,10.34 -3.07,15.73 -11.51,44.41 14.21,32.07 0,11.89 -2.01,12.49 -2.23,22.32z"/>
   <path class="fil2" d="M37.43 638.39c2.42,-5.04 4.46,-16.74 4.46,-24.55 10.83,0 26.79,-1.25 26.79,11.16 0,12.62 -17.73,13.39 -31.25,13.39zm-19.27 24.55l-11.98 0c-8.74,0 -6.04,-5.48 -4.77,-10.96l17.23 -81.48c2.09,-10.58 1.7,-25.85 12.09,-25.85 24.95,0 78.12,-5.3 78.12,24.55 0,31.77 -12.5,22.31 -22.32,35.71 21.5,5.74 18.2,36.96 -0.29,48.82 -12.85,8.24 -44.87,9.14 -68.09,9.22zm37.13 -71.43l-6.7 0c0,-11.3 1.52,-11.48 2.23,-20.09 15.39,0 24.55,-3.81 24.55,8.93 0,8.76 -11.04,11.16 -20.09,11.16z"/>
   <path class="fil2" d="M439.22 640.62c-15.44,0 -23.33,-5.28 -18.11,-24.6 8.03,-29.68 33.73,-20.6 33.73,-8.89 0,11.26 -1.16,33.48 -15.62,33.48zm-20.09 22.32l26.79 0c22.05,0 42.41,-20.36 42.41,-42.41 0,-41.2 -16.47,-46.87 -53.57,-46.87 -58.62,0 -63.06,89.29 -15.62,89.29z"/>
   <path class="fil2" d="M245.02 584.82l0 -8.93 -29.02 0c0,27.1 -15.63,63.21 -15.63,87.05l31.25 0c0.9,-10.81 5.54,-24.01 7.95,-36.69 6.47,-34.09 30,-28.9 30,-19.11 0,15.32 -2.08,19.29 -4.17,31.55 -1.32,7.75 -1.97,8.59 -3.02,15.36 -0.97,6.3 -1.89,8.32 3.74,8.89l28 0c0.44,-19.72 27.37,-89.29 -13.39,-89.29 -21.27,0 -19.65,0.41 -35.71,11.16z"/>
   <path class="fil2" d="M144.57 642.85c-5,0 -4.9,-1.77 -8.93,-4.46 1.29,-15.46 12.86,-13.39 29.02,-13.39 -2.3,9.86 -8.08,17.86 -20.09,17.86zm40.67 20.09l-22.81 0 0 -6.7c-8.94,2.39 -7.31,6.7 -17.86,6.7l-14.55 0c-12.78,-0.67 -25.63,-4.69 -25.63,-24.55 0,-46.8 83.95,-21.35 60.43,-39.93 -15.49,-12.24 -35.77,8.14 -39.23,1.04 -1.44,-2.96 1.78,-17.74 4.19,-20.53 3.94,-4.55 13.73,-5.31 21.48,-5.31 59.01,0 48.95,22.15 40.02,71.27 -2.24,12.35 -2.33,16.68 -6.05,18.02z"/>
   <path class="fil2" d="M1015.11 642.85c-5.11,0 -2.6,-0.76 -8.93,-2.23l0 -11.16c9.16,-4.39 13.21,-4.46 26.79,-4.46 -0.76,9.19 -8.56,17.86 -17.86,17.86zm51.34 -46.19l0 15.1c-1.79,18.38 -8.66,39.02 -8.93,51.18l-26.79 0 0 -6.7c-5.68,3.01 -12.81,5.49 -20.05,6.7l-17.15 0c-10.55,-2.21 -18.6,-9.34 -18.6,-24.55 0,-34.05 41.86,-31.25 62.5,-31.25 -1.88,-22.63 -31.25,-7.62 -42.82,-6.75l2.64 -22.27c23.43,-5.46 15.38,-4.46 40.18,-4.46 19.78,0 27.27,9.67 29.02,23z"/>
   <path class="fil2" d="M847.7 595.98l8.93 0c7.4,0 8.35,6.4 8.93,13.39l-31.25 0c1.59,-5.95 6.27,-13.39 13.39,-13.39zm11.16 66.96l-8.71 0c-19.36,-0.22 -49.33,-3 -49.33,-31.25l0 -13.39c0,-55.59 91.52,-58.06 91.52,-15.62 0,34.06 8.31,26.79 -62.5,26.79 10.26,19.38 31.63,15.08 49.11,6.7 0,19.28 -0.35,26.79 -20.09,26.79z"/>
   <path class="fil2" d="M367.81 662.94c8.63,-1.36 13.54,-6.13 12.78,-20.74 -0.55,-10.54 -6.65,-1.58 -19.5,-1.58 -28.62,0 -23.05,-44.19 6.36,-43.33 13,0.38 24.08,16.76 24.89,-19.17 -105.6,-24.6 -95.18,84.82 -51.34,84.82l26.81 0z"/>
   <path class="fil2" d="M899.03 618.3c0,40.81 16.1,44.4 46.05,44.64l14.22 0c8.33,0 10.87,-15.07 10.57,-20.74 -0.55,-10.54 -6.65,-1.58 -19.5,-1.58 -22.81,0 -28.17,-31.81 -5.17,-41.04 13.59,-5.45 17.26,0.53 31.95,0.86 0.26,-11.62 3.59,-11.85 4.46,-22.32 -16.15,-3.76 -12.32,-4.46 -31.25,-4.46 -26.54,0 -51.34,18.87 -51.34,44.64z"/>
  </g>
 </g>
</svg>
