<?xml version="1.0" encoding="UTF-8"?>
<!DOCTYPE svg PUBLIC "-//W3C//DTD SVG 1.1//EN" "http://www.w3.org/Graphics/SVG/1.1/DTD/svg11.dtd">
<!-- Creator: CorelDRAW -->
<svg xmlns="http://www.w3.org/2000/svg" xml:space="preserve" width="204.606mm" height="61.334mm" version="1.1" style="shape-rendering:geometricPrecision; text-rendering:geometricPrecision; image-rendering:optimizeQuality; fill-rule:evenodd; clip-rule:evenodd"
viewBox="0 0 2540.06 761.43"
 xmlns:xlink="http://www.w3.org/1999/xlink"
 xmlns:xodm="http://www.corel.com/coreldraw/odm/2003">
 <defs>
  <style type="text/css">
   <![CDATA[
    .fil0 {fill:#004481;fill-rule:nonzero}
   ]]>
  </style>
 </defs>
 <g id="Layer_x0020_1">
  <metadata id="CorelCorpID_0Corel-Layer"/>
  <g id="_3081522817680">
   <g>
    <path class="fil0" d="M1829.8 103.2l-218.46 415.75c-4.66,8.89 -18.2,8.89 -22.86,0l-218.46 -415.75c-2.12,-4.23 -6.35,-6.77 -11.01,-6.77l-105.84 0c-7.2,0 -11.85,7.62 -8.47,13.97l344.2 644.37c4.66,8.89 17.36,8.89 22.44,0l344.2 -644.37c3.39,-6.35 -1.27,-13.97 -8.47,-13.97l-105.84 0c-5.08,0 -9.31,2.54 -11.43,6.77l0 0z"/>
    <path class="fil0" d="M1953.84 658.23l218.46 -415.75c4.66,-8.89 18.2,-8.89 22.86,0l218.46 415.75c2.12,4.23 6.35,6.77 11.01,6.77l105.84 0c7.2,0 11.85,-7.62 8.47,-13.97l-344.2 -644.37c-4.66,-8.89 -17.36,-8.89 -22.44,0l-344.2 644.37c-3.39,6.35 1.27,13.97 8.47,13.97l105.84 0c4.66,-0.42 9.31,-2.96 11.43,-6.77l0 0z"/>
    <path class="fil0" d="M460.63 402.94c45.72,-22.86 74.09,-72.4 74.09,-132.94 0,-103.72 -80.86,-174 -194.75,-174l-327.26 0c-7.2,0 -12.7,5.5 -12.7,12.7l0 639.71c0,7.2 5.5,12.7 12.7,12.7l313.29 -0c156.65,0 239.2,-67.32 239.2,-199.41 0,-128.7 -104.57,-158.76 -104.57,-158.76l0 0zm-337.85 -210.41l194.33 0c71.55,0 107.96,30.48 107.96,87.21 0,56.73 -36.41,87.21 -107.96,87.21l-194.33 0c-6.77,0 -12.7,-5.5 -12.7,-12.7l0 -149.02c0,-7.2 5.5,-12.7 12.7,-12.7l0 0zm196.87 472.05l-196.87 0c-7.2,0 -12.7,-5.5 -12.7,-12.7l0 -176.54c0,-6.77 5.5,-12.7 12.7,-12.7l196.87 0c93.99,0 135.9,26.67 135.9,100.76 -0.42,74.94 -41.07,101.18 -135.9,101.18l0 0z"/>
    <path class="fil0" d="M1132.51 402.94c45.72,-22.86 74.09,-72.4 74.09,-132.94 0,-103.72 -80.86,-174 -194.75,-174l-327.69 0c-7.2,0 -12.7,5.5 -12.7,12.7l0 639.71c0,7.2 5.5,12.7 12.7,12.7l313.29 -0c156.65,0 239.2,-67.32 239.2,-199.41 0.42,-128.7 -104.15,-158.76 -104.15,-158.76l0 0zm-337.85 -210.41l194.33 0c71.55,0 107.96,30.48 107.96,87.21 0,56.73 -36.41,87.21 -107.96,87.21l-194.33 0c-7.2,0 -12.7,-5.5 -12.7,-12.7l0 -149.02c0,-7.2 5.5,-12.7 12.7,-12.7l0 0zm196.44 472.05l-196.87 0c-6.77,0 -12.7,-5.5 -12.7,-12.7l0 -176.54c0,-6.77 5.5,-12.7 12.7,-12.7l196.87 0c93.99,0 135.9,26.67 135.9,100.76 0,74.94 -41.07,101.18 -135.9,101.18l0 0z"/>
   </g>
  </g>
 </g>
</svg>
